<svg width="244" height="498" viewBox="0 0 244 498" fill="none" xmlns="http://www.w3.org/2000/svg">
<path fill-rule="evenodd" clip-rule="evenodd" d="M27.3 264.201C19.9 264.201 14 270.901 14 279.201C14 287.501 20 294.201 27.3 294.201C34.7 294.201 40.6 287.501 40.6 279.201C40.6 274.501 38.6 270.201 35.6 267.501L32.7 273.501C34 275.001 34.7 277.001 34.7 279.201C34.7 283.801 31.4 287.501 27.3 287.501C23.2 287.501 19.9 283.801 19.9 279.201C19.9 274.601 23.2 270.901 27.3 270.901C28.4 270.901 29.4 271.101 30.3 271.601L31.7 265.101C30.3 264.501 28.8 264.201 27.3 264.201Z" fill="#231F20"/>
<path fill-rule="evenodd" clip-rule="evenodd" d="M58.2993 380.8C37.5993 411.3 25.8992 445.1 19.1992 480.8L214.899 483.9C208.799 444.1 197.399 406.5 176.499 373L58.2993 380.8Z" fill="#00A651"/>
<path fill-rule="evenodd" clip-rule="evenodd" d="M119.898 218.2L102.898 229L90.8984 66.0004L120.798 192.6L154.198 9.70041L147.198 171.5L208.698 0.900391L166.498 187.3L226.298 108.2L188.998 191.9L217.998 172.6L198.698 209.5L243.498 172.6L202.198 227.1L232.098 213L200.498 245.5L219.798 241.1L197.398 260.6C187.698 247.4 161.298 232.7 119.898 218.2Z" fill="#231F20"/>
<path fill-rule="evenodd" clip-rule="evenodd" d="M96.1979 216.5L119.898 218.3C160.598 228.8 188.998 246.4 205.098 271C220.898 294.7 213.398 318.5 192.798 342.2L188.398 373.8C174.298 419.2 144.798 425.7 104.898 405.4C78.9979 407.3 59.8979 399.1 50.3979 376.4L49.4979 335.1C39.1979 325.9 31.3979 315 29.2979 299.9C18.9979 275 25.2979 243.6 49.0979 228.1L96.1979 216.5Z" fill="#85C443"/>
<path d="M40.5977 312.701C51.4977 327.301 77.1977 339.401 99.2977 336.401C122.198 333.301 163.398 316.401 202.098 288.801L194.098 296.701C154.598 324.901 123.898 339.001 100.098 342.301C75.4977 345.601 58.0977 337.501 45.8977 321.101L40.5977 312.701Z" fill="#231F20"/>
<path fill-rule="evenodd" clip-rule="evenodd" d="M50.2985 366.301C29.1985 382.801 13.9984 402.401 0.398438 423.001L33.3984 396.601C17.5984 420.901 17.3984 448.901 21.4984 477.901C29.1984 455.501 40.8984 435.301 61.4984 419.901L59.6984 492.801L101.898 433.501L127.398 497.701L148.098 432.701L194.198 494.701L187.598 417.401L227.198 462.201L202.598 389.701L223.298 405.101C214.398 388.101 203.198 375.201 189.598 366.301L188.498 373.901C174.398 419.301 144.898 425.801 104.998 405.501C79.0984 407.401 59.9984 399.201 50.4984 376.501L50.2985 366.301Z" fill="#D2DF4E"/>
<path fill-rule="evenodd" clip-rule="evenodd" d="M102.997 229.001C87.8972 186.701 37.3972 211.601 51.4972 250.601C69.9972 248.401 87.1972 241.401 102.997 229.001Z" fill="white"/>
<path fill-rule="evenodd" clip-rule="evenodd" d="M57.7969 234.502L62.2969 226.002C65.0969 217.002 70.0968 215.502 76.4968 219.202L87.5968 220.902L77.4968 223.502C75.7968 226.902 71.9968 229.202 65.0968 229.902L57.7969 234.502Z" fill="#231F20"/>
<path fill-rule="evenodd" clip-rule="evenodd" d="M121.199 234.8C136.299 192.5 186.799 217.4 172.699 256.4C154.199 254.2 136.999 247.1 121.199 234.8Z" fill="white"/>
<path fill-rule="evenodd" clip-rule="evenodd" d="M166.398 240.301L161.898 231.801C159.098 222.801 154.098 221.301 147.698 225.001L136.598 226.701L146.698 229.301C148.398 232.701 152.198 235.001 159.098 235.701L166.398 240.301Z" fill="#231F20"/>
<path fill-rule="evenodd" clip-rule="evenodd" d="M213.597 302.9C224.297 302.9 232.897 312.6 232.897 324.6C232.897 336.6 224.297 346.3 213.597 346.3C202.897 346.3 194.297 336.6 194.297 324.6C194.297 317.7 197.097 311.6 201.497 307.6L205.797 316.3C203.997 318.5 202.897 321.4 202.897 324.6C202.897 331.3 207.697 336.7 213.597 336.7C219.497 336.7 224.297 331.3 224.297 324.6C224.297 317.9 219.497 312.5 213.597 312.5C212.097 312.5 210.597 312.9 209.297 313.5L207.197 304.1C209.297 303.3 211.397 302.9 213.597 302.9Z" fill="#231F20"/>
</svg>
