<svg width="266" height="424" viewBox="0 0 266 424" fill="none" xmlns="http://www.w3.org/2000/svg">
<path fill-rule="evenodd" clip-rule="evenodd" d="M53 298.601C25 335.601 9 376.601 0 419.901L265.3 423.701C257.1 375.401 241.6 329.901 213.2 289.201L53 298.601Z" fill="#00A651"/>
<path fill-rule="evenodd" clip-rule="evenodd" d="M120.801 414.502L96.1008 324.002C81.4008 317.202 68.3008 306.502 57.3008 293.502L55.1008 293.602C50.3008 299.902 45.9008 306.202 41.8008 312.702L50.5008 332.902L69.0008 332.202L52.0008 349.202L86.4008 414.402L89.9008 421.002L122.701 421.502L120.801 414.502Z" fill="#231F20"/>
<path fill-rule="evenodd" clip-rule="evenodd" d="M151.101 414.502L175.901 324.002C190.601 317.202 203.701 306.502 214.701 293.502L216.901 293.602C221.701 299.902 226.101 306.202 230.201 312.702L221.501 332.902L203.001 332.202L220.001 349.202L185.601 414.402L180.801 422.302L149.301 421.502L151.101 414.502Z" fill="#231F20"/>
<path fill-rule="evenodd" clip-rule="evenodd" d="M151.1 414.502L175.8 324.302C163.1 329.202 148.2 331.902 130.7 332.002C118.5 331.902 106.8 329.002 96 324.002L120.8 414.502L122.7 421.502L180.5 422.302L149.1 421.502L151.1 414.502Z" fill="#E7E8E9"/>
<path fill-rule="evenodd" clip-rule="evenodd" d="M222.8 308.1C221.9 298.9 209.7 286.8 191.2 273C201.8 276.5 211.5 275.4 220.3 269.6C212.1 269.7 203.3 267.7 192.9 261C188.3 267.6 183.2 273.6 177.8 279.5C165.2 311.7 141.9 315.3 113 311.4C81.4004 300.6 76.5004 289.3 68.1004 269.2C53.5004 282.7 56.4004 306.8 24.4004 309.6C35.9004 317.3 47.2004 312.3 58.5004 301.6C45.7004 320.8 38.2004 339.8 35.1004 358.8L80.9004 324.2C78.6004 347.2 81.0004 370.3 85.6004 393.4C93.1004 374.9 93.7004 354.9 108.2 337.8C115.1 363.3 118.6 386.8 120.5 409.3C130.3 389.1 139 367.1 143.9 338.8L191.5 395.5L176.9 319.5L242.5 351.8C232.3 334.2 211.6 314.6 191.4 295L222.8 308.1Z" fill="#D2DF4E"/>
<path fill-rule="evenodd" clip-rule="evenodd" d="M134.199 103.4C185.799 130.6 228.399 160.5 239.899 199.6C243.199 259.4 194.299 305.7 130.799 332C90.0994 289.3 14.1994 290.2 24.1994 197.6C36.3994 158.7 79.4994 129.6 131.699 103.5L132.999 102.9L134.199 103.4Z" fill="#85C443"/>
<path fill-rule="evenodd" clip-rule="evenodd" d="M120.701 147.301C94.4009 98.0008 36.9009 137.901 61.4009 183.301C83.7009 177.201 103.601 165.401 120.701 147.301Z" fill="white"/>
<path fill-rule="evenodd" clip-rule="evenodd" d="M69.6992 173.1L73.6992 161.9C75.4992 150.3 81.2992 147.6 89.8992 150.9H103.899L91.9992 155.9C90.4992 160.4 86.2992 163.9 77.9992 166L69.6992 173.1Z" fill="#231F20"/>
<path fill-rule="evenodd" clip-rule="evenodd" d="M138.4 147.301C164.7 98.0008 222.2 137.901 197.7 183.301C175.4 177.201 155.6 165.401 138.4 147.301Z" fill="white"/>
<path fill-rule="evenodd" clip-rule="evenodd" d="M189.399 173.1L185.399 161.9C183.599 150.3 177.799 147.6 169.199 150.9H155.199L167.099 155.9C168.599 160.4 172.799 163.9 181.099 166L189.399 173.1Z" fill="#231F20"/>
<path fill-rule="evenodd" clip-rule="evenodd" d="M125.999 94.3008L91.3992 114.201C-2.30078 95.5008 41.2992 39.8008 14.1992 0.800781C76.9992 53.3008 206.399 58.8008 198.599 128.901L125.999 94.3008Z" fill="#231F20"/>
<path fill-rule="evenodd" clip-rule="evenodd" d="M198.199 227.2C149.999 239.4 102.199 240.4 55.1992 226.5C58.9992 252.1 84.6992 275.9 125.699 276.4C166.699 276.6 195.099 243.8 198.199 227.2Z" fill="#ED1C24"/>
<path fill-rule="evenodd" clip-rule="evenodd" d="M169.9 233C169.6 241.5 164.2 255.9 126.4 259.8V259.9H126.1H125.8V259.8C88.2004 255.5 83.4004 241.5 83.4004 233C112.7 238 141.6 237.9 169.9 233Z" fill="#ED7466"/>
</svg>
