<svg width="275" height="455" viewBox="0 0 275 455" fill="none" xmlns="http://www.w3.org/2000/svg">
<path fill-rule="evenodd" clip-rule="evenodd" d="M78.3 330.4C53.3 367.2 39.1 408.1 31 451.2L267.5 455C260.2 406.9 246.4 361.5 221 321L78.3 330.4Z" fill="#00A651"/>
<path fill-rule="evenodd" clip-rule="evenodd" d="M164.6 96.4996L192 0.599609L212.5 93.7996C239.8 123.3 242.5 152.8 257.5 182.3L200.1 193.8L172.7 225.3L131.6 207.5L57.5996 208.9L78.0996 276L56.3997 281C13.2997 236.8 10.6996 124.9 4.09961 19.7996L68.4996 117.1C95.9996 98.3996 127.2 89.4996 164.6 96.4996Z" fill="#231F20"/>
<path fill-rule="evenodd" clip-rule="evenodd" d="M173.4 129.1L144.7 131.2C95.4995 143.9 61.1995 165.2 41.6995 194.9C22.6995 223.6 31.6995 252.2 56.5995 280.9L61.8995 319.1C78.9995 374 114.6 381.8 162.8 357.3C194 359.6 217.2 349.7 228.6 322.3L229.7 272.4C242.2 261.3 251.6 248.1 254.1 229.9C266.6 199.8 258.9 161.9 230.2 143.1L173.4 129.1Z" fill="#85C443"/>
<path fill-rule="evenodd" clip-rule="evenodd" d="M167.901 129.499L144.701 122.299C140.801 123.299 137.101 133.199 133.401 134.399C142.401 117.899 58.4012 152.299 78.1012 159.299C62.8012 169.399 45.9012 169.999 36.9012 183.699C25.2012 201.299 28.9012 230.199 35.6012 247.799C37.8012 252.899 40.1012 257.599 42.7012 262.099C46.5012 268.399 51.2012 274.699 56.6012 280.999L66.6012 268.799C69.0012 252.199 68.5012 233.799 57.7012 208.799L131.701 207.399L172.801 225.199L200.201 193.699L257.601 182.199C255.701 175.299 252.901 168.499 248.701 161.699C243.801 150.199 237.701 143.899 230.301 143.199H230.101C239.101 132.399 165.601 89.1991 167.901 129.499Z" fill="#231F20"/>
<path fill-rule="evenodd" clip-rule="evenodd" d="M121.8 142.8C126.6 88.6997 58.6004 90.5997 54.4004 140.6C75.7004 147.5 98.2004 148.4 121.8 142.8Z" fill="white"/>
<path fill-rule="evenodd" clip-rule="evenodd" d="M67.2012 131.7L76.4012 124.7C84.0012 116.2 90.2012 117.1 95.4012 124.4L106.801 131.8L94.4012 129.6C90.8012 132.4 85.5011 133 77.6011 130.4L67.2012 131.7Z" fill="#231F20"/>
<path fill-rule="evenodd" clip-rule="evenodd" d="M151 135.3C130 85.1999 195.4 66.3999 214.5 112.7C196.3 125.8 175.2 133.5 151 135.3Z" fill="white"/>
<path fill-rule="evenodd" clip-rule="evenodd" d="M199.6 108.2L188.7 104.3C178.9 98.4998 173.2 101.3 170.5 109.8L161.9 120.3L173 114.4C177.3 116 182.5 115 189.2 110L199.6 108.2Z" fill="#231F20"/>
<path fill-rule="evenodd" clip-rule="evenodd" d="M57.3004 285.799C31.7004 305.699 17.3004 329.099 0.900391 353.899L40.7004 321.999C21.6004 351.399 21.4004 385.199 26.4004 420.199C35.7004 393.099 49.8004 368.699 74.7004 350.099L72.6003 438.199L123.6 366.499L154.4 443.999L179.4 365.399L235.2 440.299L227.2 346.899L275 401.099L245.3 313.499L270.3 332.099C259.6 311.499 246 295.899 229.6 285.299L228.3 294.399C211.2 349.299 175.6 357.099 127.4 332.599C96.2004 334.899 73.0003 324.999 61.6003 297.599L57.3004 285.799Z" fill="#D2DF4E"/>
<path fill-rule="evenodd" clip-rule="evenodd" d="M242.1 228.6C188.7 252.1 133.7 262.4 76.5 255.4C85.9 284.3 120.2 306.8 167.7 299.5C215.2 291.9 241.7 248.4 242.1 228.6Z" fill="#ED1C24"/>
<path fill-rule="evenodd" clip-rule="evenodd" d="M210.401 240.799C211.701 250.699 208.201 268.299 165.201 280.199V280.299H164.901L164.601 280.399L164.501 280.299C120.201 282.599 111.901 267.399 110.201 257.499C145.301 257.699 178.601 251.899 210.401 240.799Z" fill="#ED7466"/>
</svg>
