<svg width="1440" height="1021" viewBox="0 0 1440 1021" fill="none" xmlns="http://www.w3.org/2000/svg">
<g opacity="0.3">
<path d="M869.776 401.264C868.459 402.095 866.896 402.544 865.292 402.544C863.838 402.544 862.409 402.173 861.176 401.477C862.233 402.716 862.807 404.232 862.807 405.794C862.807 407.33 862.251 408.822 861.226 410.047C862.567 409.161 864.18 408.683 865.841 408.683C867.565 408.683 869.247 409.203 870.614 410.157C869.202 408.841 868.412 407.08 868.412 405.247C868.412 403.829 868.885 402.437 869.776 401.264Z" fill="white"/>
<path d="M875.13 411.068C873.572 409.37 872.473 407.168 871.986 404.757C871.546 402.572 871.629 400.31 872.227 398.232C870.823 400.221 868.88 401.58 866.702 402.091C864.56 402.587 862.307 402.239 860.29 401.098C861.93 402.819 863.086 405.087 863.591 407.575C864.114 410.173 863.897 412.863 862.979 415.223C864.388 412.676 866.604 410.919 869.157 410.321C871.142 409.858 873.225 410.122 875.13 411.068Z" fill="white"/>
<path d="M857.348 634.541C855.479 632.1 854.162 628.935 853.578 625.477C853.054 622.34 853.152 619.094 853.866 616.104C852.183 618.964 849.851 620.911 847.236 621.644C844.668 622.358 841.966 621.86 839.545 620.224C841.515 622.693 842.903 625.952 843.509 629.527C844.13 633.253 843.875 637.115 842.772 640.508C844.463 636.853 847.12 634.328 850.184 633.469C852.567 632.804 855.062 633.177 857.348 634.541Z" fill="white"/>
<path d="M591.386 378.529C590.167 379.493 588.661 380.105 587.065 380.277C585.618 380.426 584.159 380.212 582.86 379.651C584.043 380.768 584.771 382.215 584.937 383.768C585.099 385.298 584.706 386.838 583.815 388.164C585.053 387.144 586.605 386.496 588.257 386.318C589.977 386.139 591.701 386.476 593.161 387.284C591.618 386.124 590.649 384.454 590.453 382.632C590.301 381.223 590.631 379.79 591.386 378.529Z" fill="white"/>
<path d="M1011.7 432.342C1010.52 433.358 1009.04 434.026 1007.45 434.262C1006.01 434.47 1004.55 434.313 1003.23 433.807C1004.46 434.874 1005.24 436.294 1005.47 437.843C1005.69 439.359 1005.36 440.917 1004.52 442.279C1005.72 441.208 1007.25 440.498 1008.89 440.254C1010.6 440.004 1012.34 440.272 1013.83 441.018C1012.24 439.919 1011.2 438.296 1010.94 436.483C1010.73 435.079 1011 433.631 1011.7 432.342Z" fill="white"/>
<path d="M60.7912 27.4707C59.701 28.5793 58.2831 29.3708 56.7203 29.7385C55.3024 30.0664 53.8284 30.0301 52.4702 29.6353C53.7777 30.6007 54.6813 31.9447 55.038 33.4663C55.3857 34.9643 55.1865 36.5456 54.4676 37.9693C55.5668 36.7992 57.0318 35.9696 58.6453 35.5892C60.3276 35.1997 62.0805 35.3211 63.6288 35.9424C61.9592 34.977 60.7912 33.4482 60.3747 31.6622C60.0487 30.2747 60.1972 28.8147 60.7912 27.4707Z" fill="white"/>
<path d="M1440 49.9523C1438.71 49.0847 1437.67 47.8276 1437.03 46.3586C1436.45 45.0218 1436.21 43.5709 1436.36 42.1562C1435.65 43.6216 1434.49 44.7574 1433.06 45.3841C1431.65 45.9999 1430.06 46.0887 1428.53 45.6431C1429.88 46.5107 1430.96 47.8004 1431.63 49.3202C1432.32 50.9015 1432.52 52.6494 1432.19 54.2869C1432.83 52.4647 1434.13 51.0373 1435.8 50.3001C1437.11 49.7295 1438.57 49.6082 1440 49.9523Z" fill="white"/>
<path d="M1112.19 245.583C1110.65 245.746 1109.05 245.455 1107.61 244.739C1106.31 244.091 1105.19 243.127 1104.4 241.957C1104.79 243.535 1104.64 245.149 1103.94 246.549C1103.26 247.925 1102.1 249.016 1100.63 249.655C1102.23 249.456 1103.89 249.748 1105.37 250.481C1106.92 251.251 1108.2 252.461 1108.99 253.926C1108.32 252.117 1108.39 250.193 1109.2 248.552C1109.84 247.277 1110.87 246.243 1112.19 245.583Z" fill="white"/>
<path d="M1337.62 184.56C1335.2 183.187 1333.14 181.012 1331.71 178.327C1330.41 175.889 1329.7 173.134 1329.64 170.379C1328.73 173.375 1326.96 175.842 1324.61 177.391C1322.31 178.912 1319.57 179.459 1316.82 178.957C1319.34 180.321 1321.49 182.551 1322.97 185.324C1324.51 188.219 1325.22 191.543 1325 194.78C1325.73 191.117 1327.67 188.047 1330.42 186.228C1332.56 184.819 1335.06 184.239 1337.62 184.56Z" fill="white"/>
<path d="M1178.48 341.178C1177.02 341.707 1175.4 341.803 1173.84 341.46C1172.41 341.14 1171.1 340.473 1170.04 339.531C1170.81 340.964 1171.04 342.573 1170.71 344.099C1170.37 345.596 1169.51 346.932 1168.24 347.911C1169.74 347.331 1171.43 347.215 1173.04 347.566C1174.73 347.943 1176.26 348.811 1177.39 350.039C1176.29 348.449 1175.9 346.561 1176.3 344.771C1176.6 343.384 1177.37 342.129 1178.48 341.178Z" fill="white"/>
<path d="M1416.82 723.766C1415.32 724.194 1413.69 724.183 1412.15 723.732C1410.76 723.32 1409.49 722.565 1408.5 721.551C1409.17 723.034 1409.29 724.654 1408.86 726.153C1408.42 727.626 1407.47 728.901 1406.14 729.789C1407.67 729.314 1409.36 729.311 1410.95 729.774C1412.61 730.263 1414.08 731.234 1415.12 732.535C1414.14 730.876 1413.87 728.965 1414.39 727.206C1414.78 725.842 1415.63 724.643 1416.82 723.766Z" fill="white"/>
<path d="M1420.8 407.914C1419.56 408.856 1418.04 409.436 1416.44 409.575C1414.99 409.7 1413.54 409.454 1412.25 408.87C1413.41 410.01 1414.11 411.472 1414.25 413.029C1414.38 414.56 1413.95 416.094 1413.04 417.402C1414.3 416.406 1415.86 415.788 1417.51 415.645C1419.24 415.496 1420.95 415.868 1422.4 416.703C1420.88 415.511 1419.94 413.826 1419.78 412C1419.66 410.586 1420.02 409.162 1420.8 407.914Z" fill="white"/>
<path d="M192.236 272.141C191.865 274.613 190.773 276.977 189.107 278.924C187.593 280.687 185.673 282.022 183.56 282.788C186.133 282.811 188.54 283.715 190.405 285.365C192.232 286.985 193.437 289.233 193.833 291.765C194.165 289.209 195.273 286.747 196.993 284.735C198.789 282.643 201.151 281.156 203.71 280.505C200.676 280.826 197.757 279.926 195.572 277.997C193.877 276.495 192.714 274.456 192.236 272.141Z" fill="white"/>
<path d="M1178.17 614.536C1179.08 615.794 1179.62 617.329 1179.73 618.93C1179.81 620.383 1179.54 621.828 1178.92 623.105C1180.09 621.973 1181.57 621.305 1183.13 621.205C1184.66 621.111 1186.19 621.571 1187.47 622.518C1186.5 621.238 1185.92 619.656 1185.82 617.999C1185.71 616.274 1186.12 614.566 1186.99 613.143C1185.77 614.632 1184.06 615.53 1182.23 615.646C1180.81 615.735 1179.4 615.347 1178.17 614.536Z" fill="white"/>
<path d="M1426.45 274.502C1426.37 272.948 1426.75 271.361 1427.54 269.967C1428.26 268.701 1429.28 267.643 1430.5 266.911C1428.9 267.221 1427.3 266.971 1425.94 266.201C1424.6 265.446 1423.58 264.227 1423.02 262.729C1423.13 264.332 1422.75 265.974 1421.94 267.416C1421.08 268.918 1419.8 270.124 1418.3 270.843C1420.14 270.264 1422.05 270.445 1423.65 271.349C1424.89 272.048 1425.86 273.147 1426.45 274.502Z" fill="white"/>
<path d="M593.671 141.189C593.907 142.729 593.686 144.343 593.041 145.812C592.456 147.143 591.543 148.299 590.412 149.152C591.965 148.683 593.588 148.766 595.02 149.393C596.426 150.014 597.565 151.123 598.274 152.55C598.001 150.969 598.215 149.301 598.877 147.779C599.576 146.198 600.726 144.872 602.15 143.999C600.379 144.765 598.45 144.78 596.773 144.042C595.469 143.472 594.39 142.479 593.671 141.189Z" fill="white"/>
<path d="M33.4455 757.398C33.1649 758.927 32.4296 760.38 31.3395 761.557C30.349 762.624 29.1103 763.419 27.7612 763.854C29.3856 763.917 30.8904 764.528 32.0385 765.589C33.1631 766.633 33.8802 768.055 34.083 769.64C34.3419 768.055 35.088 766.544 36.2126 765.327C37.3878 764.059 38.9089 763.178 40.5387 762.825C38.6156 762.965 36.7884 762.349 35.4429 761.104C34.3999 760.139 33.7045 758.848 33.4455 757.398Z" fill="white"/>
<path d="M910.946 5.06454C909.397 4.92507 907.887 4.32732 906.612 3.35282C905.457 2.46706 904.55 1.30417 903.992 0C904.081 1.62841 903.612 3.18074 902.663 4.42333C901.73 5.63874 900.381 6.48827 898.824 6.83605C900.423 6.94654 901.995 7.54972 903.316 8.55502C904.684 9.60923 905.703 11.042 906.208 12.6324C905.888 10.7305 906.33 8.85208 907.442 7.39576C908.309 6.26909 909.528 5.45399 910.946 5.06454Z" fill="white"/>
<path d="M520.145 463.936C519.191 465.169 517.869 466.118 516.362 466.667C514.995 467.158 513.527 467.297 512.13 467.06C513.545 467.868 514.602 469.096 515.129 470.565C515.654 472.012 515.634 473.603 515.088 475.106C516.047 473.816 517.402 472.815 518.965 472.25C520.587 471.665 522.344 471.581 523.952 472.018C522.181 471.257 520.841 469.87 520.216 468.151C519.732 466.81 519.705 465.345 520.145 463.936Z" fill="white"/>
<path d="M255.074 337.158C254.341 337.496 253.549 337.607 252.809 337.467C252.137 337.339 251.536 337.013 251.072 336.527C251.371 337.292 251.404 338.172 251.165 339.031C250.929 339.869 250.444 340.635 249.785 341.219C250.538 340.849 251.357 340.728 252.122 340.871C252.919 341.019 253.615 341.451 254.1 342.092C253.651 341.248 253.555 340.217 253.836 339.215C254.053 338.437 254.484 337.719 255.074 337.158Z" fill="white"/>
<path d="M373.956 605.225C373.692 604.458 373.668 603.661 373.886 602.941C374.081 602.285 374.471 601.721 375.003 601.31C374.206 601.528 373.33 601.466 372.504 601.14C371.693 600.816 370.985 600.252 370.474 599.535C370.762 600.323 370.794 601.151 370.572 601.897C370.34 602.674 369.838 603.321 369.154 603.736C370.034 603.377 371.072 603.392 372.037 603.776C372.788 604.074 373.455 604.58 373.956 605.225Z" fill="white"/>
<path d="M547.538 249.314C546.821 249.683 546.037 249.828 545.291 249.721C544.613 249.623 544.001 249.323 543.514 248.854C543.849 249.609 543.918 250.486 543.713 251.353C543.514 252.203 543.065 252.991 542.429 253.597C543.166 253.199 543.978 253.041 544.753 253.148C545.555 253.268 546.268 253.666 546.779 254.284C546.296 253.463 546.156 252.438 546.388 251.422C546.575 250.64 546.978 249.902 547.538 249.314Z" fill="white"/>
<path d="M799.868 402.461C799.326 401.864 798.991 401.135 798.908 400.387C798.83 399.706 798.97 399.038 799.297 398.449C798.649 398.96 797.82 399.252 796.934 399.27C796.061 399.293 795.187 399.052 794.435 398.594C795.009 399.206 795.362 399.953 795.449 400.726C795.538 401.534 795.333 402.322 794.861 402.976C795.534 402.298 796.492 401.905 797.532 401.882C798.343 401.864 799.154 402.063 799.868 402.461Z" fill="white"/>
<path d="M937.495 880.604C936.898 880.057 936.494 879.369 936.342 878.63C936.202 877.961 936.273 877.28 936.541 876.666C935.947 877.235 935.15 877.602 934.27 877.709C933.403 877.813 932.508 877.659 931.72 877.271C932.345 877.827 932.773 878.535 932.934 879.298C933.102 880.093 932.966 880.899 932.564 881.593C933.166 880.856 934.084 880.374 935.118 880.249C935.92 880.151 936.746 880.276 937.495 880.604Z" fill="white"/>
<path d="M956.712 596.615C956.341 595.896 956.201 595.109 956.312 594.363C956.409 593.688 956.712 593.073 957.179 592.59C956.424 592.92 955.547 592.988 954.685 592.784C953.836 592.583 953.048 592.128 952.442 591.492C952.84 592.229 952.994 593.043 952.882 593.814C952.766 594.617 952.362 595.329 951.741 595.839C952.567 595.356 953.592 595.22 954.602 595.459C955.39 595.646 956.123 596.048 956.712 596.615Z" fill="white"/>
<path d="M1267.85 343.523C1267.42 342.837 1267.21 342.067 1267.26 341.317C1267.3 340.634 1267.55 339.995 1267.98 339.475C1267.25 339.864 1266.39 340.009 1265.5 339.879C1264.64 339.748 1263.82 339.364 1263.16 338.779C1263.62 339.484 1263.84 340.283 1263.8 341.056C1263.75 341.868 1263.41 342.61 1262.83 343.175C1263.61 342.625 1264.62 342.402 1265.65 342.551C1266.45 342.67 1267.22 343.009 1267.85 343.523Z" fill="white"/>
<path d="M1364.66 231.719C1364.02 231.214 1363.57 230.555 1363.37 229.828C1363.19 229.169 1363.21 228.488 1363.44 227.857C1362.89 228.464 1362.12 228.886 1361.24 229.053C1360.39 229.216 1359.48 229.122 1358.67 228.788C1359.33 229.299 1359.81 229.975 1360.02 230.727C1360.24 231.511 1360.16 232.322 1359.81 233.042C1360.36 232.266 1361.24 231.719 1362.26 231.524C1363.06 231.377 1363.89 231.44 1364.66 231.719Z" fill="white"/>
<path d="M1104.1 405.145C1104.03 404.339 1104.19 403.559 1104.57 402.907C1104.92 402.316 1105.43 401.863 1106.04 401.588C1105.22 401.611 1104.38 401.343 1103.66 400.833C1102.95 400.327 1102.39 399.614 1102.06 398.793C1102.15 399.628 1101.99 400.439 1101.6 401.112C1101.19 401.811 1100.55 402.321 1099.79 402.562C1100.73 402.423 1101.73 402.684 1102.58 403.282C1103.24 403.749 1103.77 404.399 1104.1 405.145Z" fill="white"/>
<path d="M1409.17 187.111C1409.35 186.323 1409.75 185.631 1410.31 185.131C1410.82 184.68 1411.45 184.403 1412.12 184.338C1411.33 184.1 1410.61 183.586 1410.09 182.872C1409.57 182.171 1409.26 181.318 1409.2 180.443C1409.03 181.264 1408.63 181.981 1408.04 182.501C1407.44 183.039 1406.67 183.322 1405.87 183.313C1406.81 183.476 1407.68 184.032 1408.3 184.867C1408.78 185.515 1409.08 186.299 1409.17 187.111Z" fill="white"/>
<path d="M1382.64 112.356C1381.88 112.62 1381.08 112.644 1380.36 112.425C1379.7 112.231 1379.14 111.845 1378.73 111.312C1378.95 112.106 1378.89 112.983 1378.56 113.807C1378.24 114.618 1377.68 115.334 1376.96 115.839C1377.75 115.551 1378.57 115.518 1379.32 115.741C1380.1 115.973 1380.74 116.473 1381.16 117.165C1380.79 116.279 1380.81 115.245 1381.19 114.276C1381.49 113.524 1382 112.858 1382.65 112.356" fill="white"/>
<path d="M394.663 303.433C393.872 303.596 393.077 303.521 392.389 303.215C391.764 302.936 391.255 302.482 390.915 301.898C391.029 302.714 390.859 303.581 390.43 304.355C390.006 305.121 389.358 305.757 388.583 306.168C389.399 305.983 390.225 306.052 390.937 306.367C391.677 306.697 392.257 307.276 392.581 308.014C392.336 307.092 392.481 306.066 392.985 305.153C393.376 304.449 393.961 303.846 394.663 303.433Z" fill="white"/>
<path d="M366.268 300.478C365.683 299.922 365.295 299.221 365.156 298.483C365.031 297.811 365.116 297.13 365.402 296.523C364.795 297.08 363.988 297.427 363.104 297.514C362.237 297.603 361.344 297.427 360.563 297.023C361.181 297.589 361.59 298.308 361.735 299.077C361.884 299.874 361.737 300.677 361.315 301.363C361.936 300.635 362.863 300.177 363.897 300.076C364.701 299.996 365.527 300.135 366.268 300.478Z" fill="white"/>
<path d="M322.931 107.391C322.32 107.92 321.591 108.244 320.843 108.318C320.162 108.383 319.494 108.235 318.912 107.896C319.412 108.55 319.689 109.389 319.696 110.274C319.704 111.146 319.452 112.019 318.979 112.759C319.6 112.2 320.352 111.852 321.127 111.778C321.935 111.703 322.722 111.921 323.367 112.403C322.701 111.716 322.324 110.752 322.313 109.713C322.308 108.907 322.521 108.095 322.931 107.391Z" fill="white"/>
<path d="M371.971 157.016C371.41 156.432 371.053 155.719 370.942 154.971C370.845 154.295 370.96 153.621 371.27 153.023C370.64 153.558 369.82 153.873 368.934 153.924C368.063 153.969 367.178 153.761 366.417 153.326C367.011 153.918 367.391 154.652 367.502 155.425C367.618 156.228 367.437 157.027 366.987 157.693C367.636 156.994 368.583 156.572 369.62 156.51C370.428 156.465 371.248 156.641 371.971 157.016Z" fill="white"/>
<path d="M270.651 37.4399C269.876 37.2026 269.213 36.757 268.755 36.1592C268.342 35.6176 268.11 34.9728 268.092 34.3008C267.799 35.0706 267.239 35.7462 266.488 36.2244C265.754 36.6881 264.878 36.9381 263.998 36.9291C264.805 37.1573 265.495 37.6156 265.973 38.2314C266.464 38.8763 266.696 39.6606 266.627 40.463C266.853 39.5356 267.474 38.706 268.351 38.1481C269.032 37.7134 269.834 37.467 270.651 37.4399Z" fill="white"/>
<path d="M866.953 212.982C866.142 212.971 865.381 212.727 864.775 212.281C864.228 211.877 863.824 211.321 863.619 210.682C863.554 211.502 863.203 212.308 862.618 212.977C862.039 213.631 861.269 214.112 860.425 214.35C861.265 214.344 862.053 214.591 862.683 215.049C863.337 215.532 863.777 216.223 863.935 217.011C863.893 216.056 864.255 215.087 864.941 214.303C865.474 213.696 866.175 213.236 866.953 212.982Z" fill="white"/>
<path d="M266.075 173.129C265.677 172.424 265.505 171.645 265.579 170.899C265.653 170.218 265.927 169.591 266.376 169.091C265.635 169.448 264.763 169.555 263.891 169.386C263.035 169.22 262.227 168.798 261.597 168.186C262.024 168.91 262.213 169.716 262.135 170.491C262.046 171.297 261.677 172.026 261.077 172.564C261.88 172.044 262.899 171.868 263.924 172.064C264.717 172.216 265.469 172.587 266.075 173.129Z" fill="white"/>
<path d="M896.024 384.011C896.316 383.254 896.812 382.629 897.437 382.21C898.013 381.839 898.67 381.654 899.344 381.681C898.592 381.339 897.962 380.727 897.54 379.948C897.127 379.178 896.942 378.287 897.017 377.412C896.729 378.2 896.223 378.854 895.573 379.285C894.892 379.731 894.096 379.901 893.302 379.776C894.212 380.073 894.994 380.75 895.486 381.663C895.87 382.377 896.057 383.194 896.024 384.011Z" fill="white"/>
<path d="M948.733 277.534C947.978 277.251 947.342 276.764 946.924 276.143C946.54 275.572 946.35 274.918 946.373 274.246C946.035 274.996 945.432 275.637 944.659 276.068C943.893 276.49 943.007 276.684 942.127 276.619C942.92 276.898 943.583 277.4 944.017 278.043C944.472 278.717 944.653 279.514 944.537 280.307C944.82 279.398 945.488 278.604 946.397 278.099C947.105 277.709 947.916 277.51 948.733 277.534Z" fill="white"/>
<path d="M874.801 298.9C874.635 298.112 874.704 297.315 875.006 296.623C875.28 295.999 875.734 295.484 876.308 295.14C875.491 295.261 874.629 295.098 873.851 294.673C873.087 294.254 872.447 293.609 872.025 292.836C872.219 293.656 872.154 294.477 871.844 295.196C871.515 295.937 870.944 296.517 870.207 296.846C871.129 296.602 872.154 296.736 873.072 297.236C873.782 297.622 874.385 298.201 874.801 298.9Z" fill="white"/>
<path d="M992.161 39.2987C992.004 38.5017 992.093 37.7084 992.402 37.0219C992.69 36.4006 993.148 35.9006 993.733 35.5655C992.917 35.6688 992.055 35.4876 991.285 35.0511C990.524 34.62 989.9 33.9625 989.496 33.1836C989.672 34.0041 989.588 34.8283 989.27 35.5347C988.931 36.2756 988.346 36.8462 987.604 37.1613C988.531 36.9295 989.552 37.0834 990.459 37.5979C991.16 37.9964 991.754 38.5905 992.161 39.2987Z" fill="white"/>
<path d="M632.472 69.4411C631.679 69.298 630.971 68.9321 630.446 68.3887C629.97 67.8978 629.667 67.2856 629.571 66.6172C629.37 67.4196 628.889 68.1568 628.202 68.7184C627.527 69.2654 626.687 69.6132 625.81 69.711C626.636 69.8396 627.378 70.2163 627.92 70.7724C628.487 71.3575 628.805 72.1074 628.829 72.9098C628.95 71.9643 629.468 71.0695 630.276 70.4102C630.9 69.9012 631.666 69.5624 632.472 69.4411Z" fill="white"/>
<path d="M1270.04 629.613C1270.17 628.815 1270.53 628.099 1271.05 627.565C1271.54 627.081 1272.14 626.768 1272.81 626.657C1272 626.473 1271.26 626.005 1270.69 625.326C1270.13 624.659 1269.76 623.826 1269.66 622.953C1269.54 623.785 1269.18 624.529 1268.63 625.081C1268.05 625.656 1267.31 625.991 1266.51 626.031C1267.46 626.132 1268.36 626.634 1269.03 627.429C1269.55 628.047 1269.9 628.807 1270.04 629.613Z" fill="white"/>
<path d="M800.452 802.942C799.947 802.31 799.653 801.566 799.612 800.814C799.579 800.131 799.751 799.47 800.117 798.903C799.441 799.376 798.592 799.615 797.707 799.586C796.836 799.555 795.974 799.265 795.255 798.76C795.792 799.405 796.102 800.173 796.144 800.95C796.187 801.761 795.932 802.538 795.427 803.161C796.135 802.526 797.118 802.189 798.157 802.225C798.963 802.252 799.76 802.502 800.452 802.942Z" fill="white"/>
<path d="M658.679 870.97C657.933 871.284 657.14 871.363 656.402 871.197C655.734 871.045 655.146 870.697 654.7 870.193C654.974 870.972 654.974 871.853 654.7 872.698C654.436 873.528 653.922 874.278 653.241 874.834C654.005 874.494 654.831 874.403 655.591 874.573C656.379 874.754 657.06 875.209 657.52 875.868C657.101 875.008 657.047 873.975 657.362 872.985C657.607 872.215 658.067 871.514 658.679 870.97Z" fill="white"/>
<path d="M638.771 835.508C638.563 834.728 638.59 833.929 638.851 833.224C639.092 832.583 639.514 832.047 640.075 831.672C639.267 831.835 638.396 831.717 637.594 831.337C636.806 830.96 636.135 830.351 635.675 829.602C635.906 830.408 635.888 831.235 635.615 831.965C635.332 832.724 634.789 833.337 634.076 833.704C634.979 833.405 636.013 833.489 636.955 833.936C637.683 834.284 638.317 834.831 638.771 835.508Z" fill="white"/>
<path d="M443.388 739.432C443.075 738.687 442.997 737.892 443.162 737.157C443.316 736.49 443.663 735.901 444.167 735.456C443.388 735.726 442.508 735.726 441.664 735.456C440.833 735.188 440.085 734.673 439.529 733.992C439.87 734.758 439.958 735.581 439.788 736.342C439.607 737.133 439.153 737.812 438.493 738.272C439.352 737.856 440.386 737.8 441.376 738.117C442.144 738.363 442.845 738.823 443.388 739.432Z" fill="white"/>
<path d="M507.521 629.375C507.405 628.575 507.532 627.787 507.874 627.117C508.19 626.51 508.671 626.026 509.274 625.722C508.454 625.787 507.601 625.566 506.85 625.093C506.113 624.626 505.515 623.941 505.149 623.141C505.289 623.968 505.167 624.789 504.81 625.481C504.439 626.202 503.827 626.745 503.076 627.024C504.008 626.836 505.024 627.042 505.904 627.597C506.585 628.029 507.152 628.649 507.521 629.375Z" fill="white"/>
<path d="M200.087 682.522C199.28 682.523 198.515 682.292 197.902 681.857C197.344 681.46 196.933 680.913 196.715 680.277C196.667 681.1 196.328 681.913 195.754 682.589C195.189 683.253 194.428 683.748 193.584 684C194.423 683.98 195.218 684.212 195.853 684.663C196.514 685.132 196.967 685.813 197.139 686.597C197.083 685.644 197.429 684.668 198.101 683.875C198.624 683.261 199.316 682.788 200.087 682.522Z" fill="white"/>
<path d="M321.364 547.166C320.83 546.557 320.5 545.829 320.422 545.079C320.353 544.402 320.495 543.73 320.83 543.145C320.18 543.65 319.345 543.932 318.457 543.947C317.586 543.961 316.712 543.71 315.968 543.242C316.534 543.864 316.884 544.615 316.965 545.389C317.047 546.197 316.833 546.985 316.355 547.633C317.036 546.961 317.998 546.577 319.037 546.563C319.845 546.548 320.656 546.756 321.364 547.166Z" fill="white"/>
<path d="M759.6 280.627C759.511 279.825 759.656 279.037 760.022 278.378C760.355 277.785 760.857 277.316 761.464 277.028C760.643 277.07 759.799 276.825 759.062 276.324C758.343 275.836 757.769 275.132 757.425 274.32C757.538 275.152 757.393 275.967 757.014 276.648C756.62 277.358 755.989 277.881 755.229 278.137C756.17 277.979 757.181 278.217 758.037 278.8C758.709 279.251 759.253 279.89 759.6 280.627Z" fill="white"/>
<path d="M407.037 372.599C406.87 371.805 406.944 371.012 407.247 370.322C407.522 369.695 407.976 369.186 408.556 368.842C407.739 368.958 406.875 368.791 406.097 368.366C405.334 367.947 404.695 367.299 404.279 366.523C404.467 367.34 404.4 368.166 404.088 368.88C403.761 369.621 403.185 370.2 402.451 370.53C403.373 370.284 404.398 370.423 405.311 370.925C406.019 371.314 406.62 371.894 407.037 372.599Z" fill="white"/>
<path d="M896.952 420.297C896.943 419.489 897.169 418.724 897.6 418.103C897.989 417.545 898.533 417.129 899.166 416.906C898.346 416.864 897.531 416.531 896.849 415.964C896.182 415.404 895.681 414.647 895.422 413.805C895.449 414.643 895.222 415.44 894.777 416.08C894.313 416.745 893.636 417.203 892.854 417.378C893.803 417.319 894.786 417.652 895.583 418.32C896.2 418.84 896.678 419.527 896.952 420.297Z" fill="white"/>
<path d="M856.156 403.602C855.446 403.216 854.89 402.645 854.561 401.968C854.264 401.352 854.166 400.675 854.282 400.012C853.842 400.707 853.155 401.26 852.326 401.575C851.511 401.885 850.606 401.95 849.744 401.769C850.49 402.155 851.075 402.738 851.417 403.439C851.77 404.171 851.839 404.988 851.612 405.757C852.02 404.895 852.795 404.203 853.764 403.834C854.519 403.546 855.354 403.466 856.156 403.602Z" fill="white"/>
<path d="M583.254 99.4206C584.027 99.647 584.695 100.087 585.159 100.681C585.575 101.223 585.812 101.864 585.84 102.536C586.122 101.761 586.678 101.08 587.426 100.598C588.154 100.12 589.025 99.8643 589.905 99.8643C589.099 99.647 588.404 99.1978 587.922 98.5801C587.42 97.9407 587.183 97.1618 587.245 96.3594C587.026 97.2868 586.415 98.1254 585.543 98.6924C584.865 99.1326 584.069 99.3825 583.254 99.4206Z" fill="white"/>
<path d="M884.897 574.625C885.629 574.283 886.422 574.172 887.165 574.31C887.837 574.435 888.44 574.756 888.903 575.243C888.601 574.479 888.564 573.596 888.8 572.74C889.032 571.899 889.513 571.129 890.173 570.546C889.421 570.921 888.606 571.042 887.84 570.903C887.038 570.754 886.343 570.327 885.857 569.688C886.31 570.526 886.408 571.56 886.131 572.562C885.917 573.341 885.486 574.06 884.897 574.625Z" fill="white"/>
<path d="M1136.27 1015.55C1135.48 1015.73 1134.68 1015.67 1133.98 1015.38C1133.36 1015.11 1132.84 1014.67 1132.49 1014.1C1132.62 1014.91 1132.46 1015.78 1132.05 1016.56C1131.64 1017.33 1131.01 1017.98 1130.24 1018.41C1131.05 1018.21 1131.88 1018.26 1132.6 1018.56C1133.35 1018.88 1133.94 1019.44 1134.28 1020.17C1134.01 1019.25 1134.14 1018.23 1134.62 1017.31C1135 1016.59 1135.57 1015.98 1136.27 1015.55Z" fill="white"/>
<path d="M998.063 497.839C997.817 497.069 997.813 496.272 998.048 495.553C998.262 494.905 998.66 494.352 999.204 493.954C998.405 494.149 997.529 494.07 996.708 493.722C995.911 493.38 995.211 492.8 994.72 492.066C994.99 492.865 995.002 493.689 994.762 494.432C994.506 495.202 993.992 495.836 993.293 496.236C994.188 495.897 995.222 495.939 996.179 496.347C996.922 496.662 997.576 497.182 998.063 497.839Z" fill="white"/>
<path d="M981.326 290.453C981.638 289.707 982.147 289.094 982.788 288.696C983.367 288.334 984.03 288.167 984.702 288.212C983.965 287.852 983.344 287.221 982.945 286.432C982.55 285.653 982.387 284.758 982.482 283.887C982.176 284.666 981.656 285.31 980.993 285.723C980.301 286.149 979.501 286.303 978.711 286.158C979.611 286.473 980.376 287.169 980.85 288.096C981.216 288.821 981.382 289.641 981.326 290.453Z" fill="white"/>
<path d="M1009.36 364.705C1009.51 363.912 1009.88 363.204 1010.42 362.68C1010.91 362.202 1011.52 361.899 1012.19 361.803C1011.39 361.604 1010.65 361.12 1010.09 360.434C1009.54 359.753 1009.2 358.914 1009.1 358.043C1008.97 358.867 1008.6 359.61 1008.04 360.151C1007.45 360.713 1006.7 361.034 1005.9 361.057C1006.85 361.177 1007.74 361.696 1008.39 362.503C1008.91 363.133 1009.24 363.899 1009.36 364.705Z" fill="white"/>
<path d="M1370.25 526.725C1369.73 526.104 1369.42 525.367 1369.37 524.615C1369.33 523.934 1369.49 523.265 1369.84 522.695C1369.17 523.177 1368.33 523.432 1367.45 523.418C1366.57 523.405 1365.71 523.131 1364.98 522.639C1365.53 523.274 1365.85 524.035 1365.91 524.809C1365.96 525.62 1365.73 526.404 1365.22 527.035C1365.93 526.386 1366.9 526.033 1367.94 526.048C1368.75 526.062 1369.55 526.298 1370.25 526.725Z" fill="white"/>
<path d="M1264.69 537.706C1265.41 537.329 1266.19 537.192 1266.94 537.293C1267.62 537.395 1268.23 537.692 1268.71 538.161C1268.39 537.404 1268.31 536.527 1268.52 535.661C1268.71 534.812 1269.17 534.024 1269.8 533.417C1269.06 533.815 1268.25 533.973 1267.48 533.866C1266.68 533.75 1265.96 533.352 1265.45 532.73C1265.93 533.551 1266.08 534.58 1265.84 535.591C1265.66 536.38 1265.26 537.118 1264.69 537.706Z" fill="white"/>
<path d="M900.679 624.442C899.868 624.388 899.125 624.102 898.542 623.624C898.017 623.187 897.647 622.613 897.475 621.961C897.365 622.78 896.97 623.566 896.349 624.2C895.737 624.821 894.944 625.259 894.082 625.451C894.92 625.491 895.699 625.779 896.298 626.274C896.923 626.79 897.327 627.502 897.443 628.297C897.457 627.342 897.87 626.393 898.596 625.651C899.163 625.075 899.886 624.654 900.679 624.442Z" fill="white"/>
<path d="M1413.63 154.349C1414.42 154.518 1415.12 154.902 1415.63 155.458C1416.09 155.96 1416.37 156.581 1416.46 157.248C1416.68 156.456 1417.18 155.732 1417.88 155.19C1418.57 154.656 1419.42 154.331 1420.3 154.262C1419.47 154.105 1418.75 153.715 1418.22 153.139C1417.66 152.542 1417.37 151.781 1417.36 150.979C1417.22 151.92 1416.68 152.806 1415.85 153.442C1415.21 153.933 1414.44 154.248 1413.63 154.349Z" fill="white"/>
<path d="M1220.22 742.226C1220.78 742.813 1221.13 743.527 1221.24 744.273C1221.33 744.951 1221.22 745.624 1220.9 746.22C1221.53 745.691 1222.36 745.38 1223.24 745.333C1224.12 745.287 1225 745.503 1225.76 745.943C1225.17 745.347 1224.79 744.61 1224.68 743.838C1224.57 743.034 1224.76 742.237 1225.21 741.574C1224.56 742.268 1223.61 742.688 1222.57 742.743C1221.76 742.784 1220.95 742.605 1220.22 742.226Z" fill="white"/>
<path d="M1223.06 137.062C1222.68 137.776 1222.11 138.338 1221.44 138.671C1220.82 138.972 1220.15 139.069 1219.48 138.959C1220.18 139.394 1220.73 140.08 1221.06 140.906C1221.37 141.723 1221.44 142.627 1221.26 143.484C1221.65 142.737 1222.23 142.149 1222.93 141.806C1223.66 141.448 1224.47 141.375 1225.24 141.596C1224.38 141.194 1223.68 140.424 1223.3 139.455C1223.01 138.704 1222.93 137.869 1223.06 137.062Z" fill="white"/>
<path d="M1386.9 72.1294C1387.7 72.1947 1388.44 72.4917 1389.02 72.979C1389.54 73.4191 1389.91 73.9988 1390.07 74.6527C1390.19 73.8357 1390.6 73.0569 1391.22 72.4301C1391.84 71.8143 1392.65 71.3868 1393.5 71.2075C1392.67 71.1549 1391.89 70.8597 1391.3 70.3543C1390.68 69.829 1390.29 69.1154 1390.18 68.3184C1390.16 69.2729 1389.73 70.2148 1389 70.9466C1388.42 71.5172 1387.69 71.9248 1386.9 72.1294Z" fill="white"/>
<path d="M879.246 497.098C878.472 496.861 877.808 496.415 877.35 495.817C876.933 495.276 876.701 494.631 876.681 493.959C876.39 494.732 875.829 495.41 875.082 495.888C874.345 496.355 873.474 496.605 872.593 496.596C873.4 496.825 874.096 497.279 874.568 497.9C875.064 498.54 875.296 499.324 875.231 500.125C875.459 499.197 876.069 498.368 876.946 497.806C877.629 497.372 878.429 497.125 879.246 497.098Z" fill="white"/>
<path d="M365.913 285.191C366.015 284.389 366.341 283.661 366.851 283.108C367.317 282.608 367.911 282.269 368.57 282.135C367.76 281.981 366.998 281.541 366.4 280.884C365.814 280.239 365.421 279.422 365.278 278.551C365.191 279.386 364.859 280.147 364.332 280.721C363.782 281.315 363.048 281.675 362.248 281.746C363.201 281.815 364.124 282.279 364.825 283.048C365.368 283.646 365.747 284.394 365.913 285.191Z" fill="white"/>
<path d="M589.485 751.684C588.822 752.145 588.061 752.386 587.306 752.376C586.625 752.366 585.975 752.147 585.437 751.747C585.859 752.452 586.046 753.314 585.954 754.196C585.865 755.064 585.517 755.904 584.965 756.587C585.648 756.096 586.43 755.837 587.209 755.848C588.02 755.861 588.78 756.165 589.369 756.714C588.78 755.96 588.512 754.96 588.619 753.926C588.697 753.122 589.003 752.341 589.485 751.684Z" fill="white"/>
<path d="M1363.67 457.455C1363.74 458.263 1363.57 459.042 1363.18 459.69C1362.83 460.275 1362.32 460.73 1361.7 460.998C1362.52 460.98 1363.36 461.253 1364.08 461.773C1364.79 462.282 1365.34 463.001 1365.66 463.822C1365.57 462.987 1365.74 462.175 1366.14 461.509C1366.56 460.808 1367.19 460.303 1367.96 460.071C1367.02 460.201 1366.02 459.937 1365.17 459.33C1364.52 458.855 1364 458.203 1363.67 457.455Z" fill="white"/>
<path d="M1155.46 244.328C1155.03 243.642 1154.82 242.872 1154.87 242.12C1154.91 241.439 1155.16 240.798 1155.58 240.28C1154.86 240.669 1153.99 240.812 1153.11 240.682C1152.25 240.557 1151.43 240.173 1150.77 239.588C1151.23 240.289 1151.45 241.086 1151.41 241.865C1151.36 242.676 1151.02 243.419 1150.44 243.98C1151.23 243.428 1152.24 243.205 1153.27 243.359C1154.06 243.475 1154.83 243.812 1155.46 244.328Z" fill="white"/>
<path d="M699.676 425.021C699.682 425.828 699.455 426.594 699.019 427.21C698.624 427.766 698.077 428.179 697.443 428.396C698.264 428.443 699.075 428.782 699.756 429.352C700.419 429.918 700.915 430.678 701.17 431.522C701.147 430.682 701.378 429.89 701.827 429.249C702.296 428.586 702.974 428.137 703.761 427.961C702.805 428.021 701.827 427.679 701.036 427.005C700.419 426.481 699.946 425.791 699.676 425.021Z" fill="white"/>
<path d="M418.486 589.747C419.285 589.622 420.076 589.738 420.748 590.077C421.358 590.387 421.845 590.865 422.155 591.463C422.081 590.642 422.295 589.789 422.762 589.034C423.222 588.291 423.901 587.69 424.698 587.313C423.872 587.462 423.052 587.351 422.354 586.998C421.632 586.632 421.083 586.023 420.795 585.273C420.993 586.21 420.797 587.226 420.25 588.11C419.825 588.797 419.209 589.367 418.486 589.747Z" fill="white"/>
<path d="M1061.14 492.304C1061.22 491.502 1061.53 490.765 1062.02 490.194C1062.47 489.68 1063.06 489.327 1063.72 489.174C1062.9 489.044 1062.13 488.627 1061.51 487.986C1060.91 487.356 1060.49 486.55 1060.33 485.688C1060.26 486.521 1059.95 487.287 1059.44 487.876C1058.9 488.488 1058.18 488.868 1057.38 488.961C1058.34 489.002 1059.27 489.442 1060 490.194C1060.56 490.774 1060.96 491.511 1061.14 492.304Z" fill="white"/>
<path d="M119.665 959.882C118.856 959.905 118.086 959.693 117.46 959.273C116.895 958.891 116.469 958.355 116.235 957.723C116.208 958.547 115.89 959.369 115.334 960.059C114.785 960.737 114.037 961.253 113.2 961.525C114.039 961.483 114.839 961.695 115.486 962.13C116.159 962.583 116.628 963.253 116.82 964.032C116.741 963.081 117.059 962.095 117.713 961.286C118.22 960.657 118.899 960.168 119.665 959.882Z" fill="white"/>
<path d="M460.136 863.91C460.448 863.163 460.957 862.549 461.598 862.153C462.181 861.794 462.844 861.629 463.515 861.676C462.775 861.31 462.157 860.682 461.759 859.89C461.37 859.111 461.207 858.217 461.304 857.342C460.995 858.122 460.475 858.764 459.812 859.175C459.12 859.601 458.32 859.753 457.527 859.606C458.425 859.925 459.191 860.622 459.658 861.551C460.026 862.272 460.187 863.095 460.136 863.91Z" fill="white"/>
<path d="M0.268009 530.143C0.894569 529.632 1.6334 529.332 2.38672 529.284C3.06761 529.243 3.7322 529.409 4.30081 529.772C3.82274 529.1 3.57465 528.256 3.59638 527.364C3.61993 526.493 3.90061 525.631 4.3986 524.908C3.75755 525.45 2.99518 525.77 2.2165 525.816C1.40704 525.868 0.628371 525.622 0 525.12C0.642858 525.827 0.986923 526.799 0.961571 527.843C0.941651 528.65 0.698995 529.451 0.268009 530.143Z" fill="white"/>
<path d="M1200.31 322.971C1200.2 322.168 1200.32 321.38 1200.67 320.714C1200.98 320.105 1201.47 319.623 1202.07 319.317C1201.25 319.383 1200.39 319.16 1199.65 318.687C1198.91 318.218 1198.31 317.537 1197.94 316.734C1198.08 317.564 1197.96 318.381 1197.61 319.076C1197.23 319.796 1196.62 320.337 1195.87 320.62C1196.8 320.43 1197.82 320.634 1198.7 321.19C1199.38 321.621 1199.94 322.243 1200.31 322.971Z" fill="white"/>
</g>
</svg>
