<svg width="305" height="409" viewBox="0 0 305 409" fill="none" xmlns="http://www.w3.org/2000/svg">
<path fill-rule="evenodd" clip-rule="evenodd" d="M113.2 17.9007C122.1 -8.89932 210.3 -3.19932 206.2 21.9007L201.4 51.3007C201 54.0007 197.6 56.2007 193.9 56.2007H106.9C103.2 56.2007 100.6 54.0007 101 51.3007L105.6 22.8007C106.1 20.1007 112 21.4007 113.2 17.9007Z" fill="#EC008C"/>
<path fill-rule="evenodd" clip-rule="evenodd" d="M70.9008 249.101C43.3008 285.401 27.7008 325.701 18.8008 368.201L279.401 371.901C271.301 324.501 256.101 279.701 228.201 239.801L70.9008 249.101Z" fill="#00A651"/>
<path fill-rule="evenodd" clip-rule="evenodd" d="M277.4 267.2C276.1 254.4 259.1 237.5 233.3 218.2C248.1 223 261.7 221.5 273.9 213.5C262.5 213.6 250.1 210.8 235.6 201.5C229.2 210.6 222 219.2 214.5 227.3C196.9 272.3 164.1 283.8 123.8 278.3C79.7 263.3 73.1 241 61.4 213C41.1 231.8 45.1 265.5 0.5 269.4C16.5 280.1 32.3 273.2 48.1 258.2C30.2 285 19.8 311.6 15.5 338L79.4 289.7C76.1 321.9 79.5 354.1 85.9 386.4C96.4 360.5 97.3 332.7 117.4 308.8C127 344.4 131.9 377.2 134.6 408.6C148.3 380.4 160.5 349.7 167.2 310.1L233.7 389.2L213.3 283.2L304.9 328.3C290.6 303.8 261.8 276.3 233.5 249L277.4 267.2Z" fill="#D2DF4E"/>
<path fill-rule="evenodd" clip-rule="evenodd" d="M150.9 110.801C231.1 110.801 296.4 97.2012 296.4 80.5012C296.4 63.8012 231 50.2012 150.9 50.2012C70.7004 50.2012 5.40039 63.8012 5.40039 80.5012C5.40039 97.2012 70.8004 110.801 150.9 110.801Z" fill="#9D2C41"/>
<path fill-rule="evenodd" clip-rule="evenodd" d="M145.6 69.3012C194.4 95.0012 234.6 123.201 245.4 160.201C248.5 216.701 226.2 265.201 142.3 285.301C97.9996 270.601 44.1996 254.801 41.5996 158.301C53.0996 121.501 93.8996 94.1012 143.2 69.3012L144.4 68.7012L145.6 69.3012Z" fill="#85C443"/>
<path fill-rule="evenodd" clip-rule="evenodd" d="M132.5 78.001C104.2 33.401 52.8001 75.101 79.2001 116.201C99.7001 108.801 117.6 96.201 132.5 78.001Z" fill="white"/>
<path fill-rule="evenodd" clip-rule="evenodd" d="M82.0996 96.1012L85.0996 85.2012C85.9996 74.1012 91.2996 71.2012 99.5996 73.7012L112.8 72.7012L101.9 78.3012C100.8 82.6012 97.0997 86.2012 89.3997 88.8012L82.0996 96.1012Z" fill="#231F20"/>
<path fill-rule="evenodd" clip-rule="evenodd" d="M215 172.101C166.8 195.401 119.1 197.301 72 170.701C75.8 219.501 101.5 264.901 142.5 266.101C183.4 266.601 211.9 203.901 215 172.101Z" fill="#ED1C24"/>
<path fill-rule="evenodd" clip-rule="evenodd" d="M186.6 183.301C186.3 199.601 180.9 227.001 143.1 234.401V234.501L142.8 234.401L142.5 234.501V234.401C104.9 226.201 100.1 199.501 100.1 183.201C129.5 192.901 158.3 192.601 186.6 183.301Z" fill="#ED7466"/>
<path fill-rule="evenodd" clip-rule="evenodd" d="M156.199 78.2007C185.399 34.2007 235.899 76.9007 208.799 117.401C187.299 107.101 168.899 94.6007 156.199 78.2007Z" fill="white"/>
<path fill-rule="evenodd" clip-rule="evenodd" d="M206.2 97.2008L203.4 86.3008C202.7 75.2008 197.5 72.1008 189.1 74.5008L176 73.3008L186.8 79.1008C187.8 83.4008 191.5 87.1008 199.1 89.9008L206.2 97.2008Z" fill="#231F20"/>
<path fill-rule="evenodd" clip-rule="evenodd" d="M143.7 94.4016C167.9 119.302 199.3 131.002 234.1 136.602C228.2 128.002 220.7 119.902 211.8 112.202C210.9 113.902 209.9 115.602 208.8 117.302C187.3 107.002 169 94.5016 156.2 78.1016C156.7 77.3016 157.3 76.5016 157.8 75.8016C153.8 73.6016 149.8 71.4016 145.6 69.2016L144.4 68.6016L143.2 69.2016C139 71.3016 134.9 73.4016 130.9 75.5016C131.4 76.2016 131.9 77.0016 132.5 77.8016C117.6 96.1016 99.8 108.602 79.2 116.002C78.1 114.302 77.1 112.502 76.3 110.802C69 117.002 62.5 123.402 57 130.202C85.9 127.702 114.8 116.402 143.7 94.4016Z" fill="#672B2C"/>
<path d="M139.699 168.301C139.599 168.301 79.7992 152.201 59.6992 166.001L64.6992 162.401C86.6992 147.301 140.799 164.001 140.999 164.101L139.699 168.301Z" fill="#D2DF4E"/>
<path d="M148.3 168.301C148.5 168.301 208.2 152.201 228.3 166.001L223.3 162.401C201.3 147.301 147.2 164.001 147 164.101L148.3 168.301Z" fill="#D2DF4E"/>
</svg>
