<svg width="260" height="434" viewBox="0 0 260 434" fill="none" xmlns="http://www.w3.org/2000/svg">
<path fill-rule="evenodd" clip-rule="evenodd" d="M51.9008 249.1C24.9008 284.7 9.60078 324.2 0.800781 365.9L256.301 369.5C248.401 323 233.501 279.1 206.101 239.9L51.9008 249.1Z" fill="#00A651"/>
<path fill-rule="evenodd" clip-rule="evenodd" d="M68.4004 126.1C99.4004 84.3996 101.9 -1.20044 167 0.49956C256.6 7.59956 267.4 79.2996 252.7 129.9C225.6 65.9995 156.5 78.5996 68.4004 126.1Z" fill="#EFB24E"/>
<path fill-rule="evenodd" clip-rule="evenodd" d="M193.801 76.3996C216.401 50.1996 257.701 67.7996 242.201 110.2C221.701 102 205.801 90.5996 193.801 76.3996Z" fill="white"/>
<path fill-rule="evenodd" clip-rule="evenodd" d="M212.9 77.3996L225.8 76.5996C232 77.1996 236.4 79.6996 236.1 87.2996L238.8 95.6996L230.9 89.0996C225.4 89.0996 222.2 86.3996 221.6 80.8996L212.9 77.3996Z" fill="#231F20"/>
<path fill-rule="evenodd" clip-rule="evenodd" d="M166.3 76.3996C143.7 50.1996 102.4 67.7996 117.9 110.2C152.4 112.8 176.2 107.3 166.3 76.3996Z" fill="white"/>
<path fill-rule="evenodd" clip-rule="evenodd" d="M164.601 81.0988L151.701 80.2988C145.501 80.8988 141.101 83.3988 141.401 90.9988L138.701 99.3988L146.601 92.7988C152.101 92.7988 155.301 90.0988 155.901 84.5988L164.601 81.0988Z" fill="#231F20"/>
<path fill-rule="evenodd" clip-rule="evenodd" d="M259.5 125.699C257.8 119.599 252.7 112.599 242.2 110.199C221.7 102.099 205.8 90.5987 193.8 76.3987C183.6 74.5987 174.5 74.7987 166 76.0987C166.1 76.1987 166.2 76.2987 166.2 76.3987C176.1 107.299 152.4 112.699 117.8 110.199C115.5 103.799 114.4 97.9987 114.4 92.8987C67.0002 118.299 59.2003 121.999 67.0003 178.599C77.3003 217.699 62.5003 240.899 102.6 270.799C131.8 284.799 159.4 284.099 183.8 254.399C210.2 239.699 234 220.199 249.5 185.999C257.1 169.499 252.6 154.099 259.5 125.699Z" fill="#85C443"/>
<path fill-rule="evenodd" clip-rule="evenodd" d="M81.6016 147.1C141.902 175.2 205.102 213.5 245.902 159.9C231.502 174.2 222.502 204 202.602 202.8C158.102 192.9 121.902 165.7 81.6016 147.1Z" fill="#ED1C24"/>
<path fill-rule="evenodd" clip-rule="evenodd" d="M221.7 300C223.9 290 215.1 273 200.3 252.1C210.3 259.4 221 261.5 232.2 258.5C223.5 255.8 214.8 250.6 206.2 240C199.1 245.4 191.6 250.1 183.9 254.4C159.5 284.2 131.9 284.9 102.7 270.8C72.9004 248.6 73.4004 230.1 71.4004 206C51.4004 215.3 46.2004 241.8 11.4004 233.8C20.9004 245.8 34.6004 244.4 50.2004 237C30.1004 252.9 15.7004 270.5 5.90039 289.5L66.1004 268.5C55.8004 292.1 50.4004 317.3 47.4004 343.3C61.7004 326.3 69.2004 305.4 90.3004 292.2C88.9004 321.5 84.6004 347.6 78.9004 372C96.2004 354 112.9 333.7 127.7 305.4L158.7 381.6L169.2 296.3L227.6 352.9C222.8 330.8 207.6 303 192.9 275.3L221.7 300Z" fill="#D2DF4E"/>
<path fill-rule="evenodd" clip-rule="evenodd" d="M120.202 21.9987C96.6016 15.1987 51.6016 34.0987 33.6016 70.9987C32.8016 70.5987 31.9016 70.4987 31.0016 70.4987C27.5016 70.4987 24.6016 73.3987 24.6016 76.8987C24.6016 79.6987 26.4016 82.0987 28.9016 82.8987C20.3016 111.999 28.1016 149.899 70.0016 194.099C69.3016 189.199 68.4016 184.099 67.0016 178.599C63.3016 151.699 63.1016 136.699 69.1016 125.699C68.9016 125.799 68.7016 125.899 68.5016 125.999C89.3016 97.8987 97.3016 49.7987 120.202 21.9987Z" fill="#C07331"/>
<path d="M72.5002 219.799C74.5002 219.999 57.2002 268.999 156.5 335.499C187.7 306.899 193.1 249.099 193.1 248.999L198.9 245.299C198.9 245.499 191.2 312.899 155.9 341.399L154.6 339.799L153.5 341.499C50.1002 272.999 71.2002 204.999 71.2002 204.799L72.5002 219.799Z" fill="#C07331"/>
<path fill-rule="evenodd" clip-rule="evenodd" d="M149.701 347.3H155.401C153.801 346.6 152.801 345 152.801 343.2C152.801 340.7 154.801 338.6 157.401 338.6C160.001 338.6 162.001 340.6 162.001 343.2C162.001 345 160.901 346.6 159.401 347.3H168.001C171.801 347.3 174.901 350.4 174.901 354.2V427.1C174.901 430.9 171.801 434 168.001 434H149.901C146.101 434 143.001 430.9 143.001 427.1V354.2C142.801 350.4 145.901 347.3 149.701 347.3ZM157.301 340.6C155.901 340.6 154.801 341.7 154.801 343.1C154.801 344.5 155.901 345.6 157.301 345.6C158.701 345.6 159.801 344.5 159.801 343.1C159.801 341.7 158.701 340.6 157.301 340.6Z" fill="#C07331"/>
<path d="M167.901 353.199H149.201V426.699H167.901V353.199Z" fill="#E7E8E9"/>
</svg>
