<svg width="338" height="373" viewBox="0 0 338 373" fill="none" xmlns="http://www.w3.org/2000/svg">
<path fill-rule="evenodd" clip-rule="evenodd" d="M78.2 191.3C47.7 231.5 30.4 276.1 20.5 323.2L309.1 327.3C300.2 274.8 283.3 225.2 252.4 181L78.2 191.3Z" fill="#00A651"/>
<path fill-rule="evenodd" clip-rule="evenodd" d="M306.902 216.1C305.502 202 286.602 183.2 258.002 161.9C274.402 167.3 289.402 165.5 303.002 156.7C290.302 156.8 276.602 153.7 260.602 143.4C253.502 153.5 245.602 162.9 237.202 171.9C217.702 221.7 181.402 234.4 136.702 228.4C87.8015 211.8 80.5016 187.1 67.6016 156C45.1016 176.8 49.5016 214.2 0.101562 218.5C17.8016 230.3 35.4016 222.7 52.8016 206.1C33.0016 235.8 21.4016 265.2 16.6016 294.5L87.4016 241C83.8016 276.6 87.5016 312.3 94.6016 348C106.202 319.3 107.202 288.5 129.502 262C140.202 301.5 145.602 337.7 148.502 372.6C163.602 341.4 177.102 307.4 184.602 263.6L258.202 351.2L235.602 233.8L337.102 283.7C321.302 256.5 289.302 226.1 258.002 195.8L306.902 216.1Z" fill="#D2DF4E"/>
<path fill-rule="evenodd" clip-rule="evenodd" d="M164.301 1.19961C218.401 29.5996 248.801 59.1996 260.801 100.2C263.601 151 236.801 189.3 206.301 226.4C197.601 237 178.901 237.2 160.701 240.5C104.901 250 54.2007 163.9 58.9007 101.4C71.7007 60.6996 107.101 28.6996 161.701 1.29961L163.101 0.599609L164.301 1.19961Z" fill="#46B74E"/>
<path fill-rule="evenodd" clip-rule="evenodd" d="M159.903 134.6C120.003 148 113.003 184.9 115.203 228.5C41.6028 151.8 37.1029 85.0996 108.403 29.0996C122.903 52.4996 140.003 65.6996 159.903 68.4996C179.803 65.6996 196.903 52.4996 211.403 29.0996C282.703 84.9996 278.203 151.8 204.603 228.5C206.803 184.9 199.803 148 159.903 134.6Z" fill="#ED1C24"/>
<path d="M160.803 104.199C153.403 104.199 130.303 83.5992 125.703 79.4992C113.203 68.1992 96.9031 51.6992 92.2031 42.5992L94.9032 41.1992C103.403 57.8992 152.803 101.099 160.803 101.099V104.199Z" fill="#FFF200"/>
<path d="M160.802 115.9C113.702 109.8 72.0016 68.5004 71.6016 68.0004L73.7015 65.9004C74.1015 66.3004 115.102 106.9 161.102 112.9L160.802 115.9Z" fill="#FFF200"/>
<path d="M160.803 119.499C98.2032 108.599 58.1031 114.999 57.7031 115.099L57.2031 112.099C57.6031 111.999 98.1032 105.499 161.303 116.499L160.803 119.499Z" fill="#FFF200"/>
<path d="M69.1016 162.1L66.1016 161.6C66.2016 161.2 68.1016 150.9 80.9016 140.7C92.5016 131.4 115.902 120.4 161.102 120.4V123.4C117.002 123.4 94.3016 134 83.0016 142.9C71.0016 152.3 69.1016 162 69.1016 162.1Z" fill="#FFF200"/>
<path d="M96.7031 205.8H93.7031C93.7031 205 93.8031 186.8 102.103 167.5C109.803 149.6 126.303 127.4 161.003 123.9L161.303 126.9C134.603 129.6 115.503 143.7 104.803 168.7C96.9032 187.5 96.7031 205.7 96.7031 205.8Z" fill="#FFF200"/>
<path d="M100.905 53.0004L99.8047 50.2004C111.805 45.2004 114.505 39.4004 114.505 39.4004L117.205 40.6004C117.105 40.9004 114.005 47.6004 100.905 53.0004Z" fill="#FFF200"/>
<path d="M81.4016 75.2988L79.6016 72.8988C84.4016 69.1988 97.3016 58.0988 98.8016 51.2988L101.702 51.8988C99.7015 61.1988 82.2016 74.6988 81.4016 75.2988Z" fill="#FFF200"/>
<path d="M68.7031 113.299L66.2031 111.599C71.3031 103.999 83.7031 82.3988 79.2031 74.7988L81.8032 73.2988C88.0032 83.8988 70.7031 110.299 68.7031 113.299Z" fill="#FFF200"/>
<path d="M74.5047 151.2L71.5047 150.8C71.5047 150.5 74.6047 124.5 67.3047 113.2L69.8047 111.6C77.7047 123.8 74.6047 150.1 74.5047 151.2Z" fill="#FFF200"/>
<path d="M95.8047 188.7C95.8047 188.4 92.5047 163 72.3047 152.3L73.7046 149.6C95.4046 161 98.7047 187.2 98.8047 188.3L95.8047 188.7Z" fill="#FFF200"/>
<path d="M113.402 211C113.402 210.3 112.302 192.7 97.1016 190L97.6016 187C115.202 190.1 116.402 210.6 116.402 210.8L113.402 211Z" fill="#FFF200"/>
<path d="M116.502 184.799C114.202 181.699 107.002 173.999 101.702 175.399L100.902 172.5C109.202 170.3 118.502 182.5 118.902 183L116.502 184.799Z" fill="#FFF200"/>
<path d="M122.805 166.699C120.305 164.299 112.905 158.699 108.605 160.899L107.305 158.199C114.405 154.699 124.505 164.099 125.005 164.499L122.805 166.699Z" fill="#FFF200"/>
<path d="M129.604 154.8C129.604 154.7 124.904 145.7 118.204 147.4L117.504 144.5C126.604 142.3 132.104 153.1 132.304 153.5L129.604 154.8Z" fill="#FFF200"/>
<path d="M141.105 143.7C140.305 141.2 137.205 134.4 133.605 135.3L132.805 132.4C139.805 130.5 143.705 142.2 143.905 142.7L141.105 143.7Z" fill="#FFF200"/>
<path d="M153.802 137.799L150.802 137.399C150.802 137.099 151.602 130.699 146.402 129.699L146.902 126.699C153.402 127.899 154.202 134.499 153.802 137.799Z" fill="#FFF200"/>
<path d="M102.703 174.299L99.8032 173.499C103.403 159.899 84.4031 140.599 84.2031 140.399L86.3032 138.299C87.2032 139.099 106.803 158.999 102.703 174.299Z" fill="#FFF200"/>
<path d="M110.002 159.6L107.102 158.8C110.802 145.4 94.5023 135.1 94.4023 135L96.0023 132.5C96.7023 132.9 114.302 144.1 110.002 159.6Z" fill="#FFF200"/>
<path d="M116.305 146.199C114.905 137.499 108.305 129.899 108.305 129.799L110.605 127.799C110.905 128.099 117.805 136.099 119.305 145.599L116.305 146.199Z" fill="#FFF200"/>
<path d="M134.705 133.999L131.705 133.799C131.905 130.799 131.405 128.599 130.205 127.199C129.005 125.799 127.405 125.799 127.305 125.799V122.799C127.405 122.799 130.205 122.799 132.305 125.099C134.205 127.099 135.005 130.099 134.705 133.999Z" fill="#FFF200"/>
<path d="M148.203 128.5L145.303 127.9C145.903 124.5 144.403 123.8 144.203 123.7L145.203 120.9C145.303 121 149.303 122.4 148.203 128.5Z" fill="#FFF200"/>
<path d="M86.7023 139.9L83.9023 138.8C88.5023 127.3 77.5023 112.9 77.4023 112.7L79.8024 110.9C80.2024 111.5 92.0023 126.8 86.7023 139.9Z" fill="#FFF200"/>
<path d="M96.5039 134.3L93.804 133C97.504 125.4 90.5039 112.4 90.5039 112.3L93.1039 110.9C93.4039 111.5 100.804 125.4 96.5039 134.3Z" fill="#FFF200"/>
<path d="M110.602 129.8L108.302 127.8C112.402 123.1 108.102 112.7 108.102 112.6L110.902 111.4C111.102 112 115.802 123.7 110.602 129.8Z" fill="#FFF200"/>
<path d="M130.002 124.999L127.702 122.999C130.602 119.699 125.402 114.399 125.402 114.299L127.502 112.199C127.802 112.599 134.702 119.599 130.002 124.999Z" fill="#FFF200"/>
<path d="M145.202 123.799L144.102 120.999C145.302 120.499 145.402 119.899 145.502 119.699C145.802 118.599 144.902 116.899 144.502 116.499L146.902 114.699C147.102 114.999 149.102 117.799 148.302 120.499C148.102 121.499 147.302 122.899 145.202 123.799Z" fill="#FFF200"/>
<path d="M79.4032 113L77.7031 110.5C90.7031 101.9 89.2031 82.5 89.1031 82.3L92.1031 82C92.2031 82.9 93.9032 103.5 79.4032 113Z" fill="#FFF200"/>
<path d="M94.0023 113L92.9023 110.2C103.602 106.1 100.602 90.8 100.602 90.6L103.502 90C103.602 90.2 107.102 108 94.0023 113Z" fill="#FFF200"/>
<path d="M110.502 113.1L108.402 111C113.502 105.9 110.902 97.0996 110.802 96.9996L113.702 96.0996C113.802 96.5996 116.902 106.7 110.502 113.1Z" fill="#FFF200"/>
<path d="M127.502 114.399L125.402 112.299C128.502 109.199 127.602 105.699 127.502 105.599L130.402 104.799C130.502 104.899 131.902 110.099 127.502 114.399Z" fill="#FFF200"/>
<path d="M144.202 115.599C144.102 112.699 143.602 111.599 143.602 111.599L146.302 110.299C146.402 110.599 147.102 111.999 147.202 115.499L144.202 115.599Z" fill="#FFF200"/>
<path d="M91.5046 83.3992L89.8047 80.8992C105.005 70.3992 106.705 60.2992 106.805 60.1992L109.805 60.5992C109.605 61.0992 107.905 72.0992 91.5046 83.3992Z" fill="#FFF200"/>
<path d="M102.905 91.6L101.305 89C105.705 86.3 117.305 77.8 118.005 71.5L121.005 71.8C120.105 80.9 103.605 91.2 102.905 91.6Z" fill="#FFF200"/>
<path d="M112.903 97.9996L111.703 95.2996C116.203 93.2996 128.703 86.2996 127.503 80.6996L130.403 80.0996C132.303 88.9996 114.903 97.0996 112.903 97.9996Z" fill="#FFF200"/>
<path d="M130.004 106.199L128.004 103.999C128.104 103.899 136.904 95.9992 136.504 88.2992L139.504 88.1992C139.904 97.2992 130.404 105.899 130.004 106.199Z" fill="#FFF200"/>
<path d="M146.205 111.9L143.805 110.1C143.805 110 148.805 103.6 148.205 97.3L151.205 97C151.905 104.5 146.405 111.6 146.205 111.9Z" fill="#FFF200"/>
<path d="M108.203 61.9004V58.9004C108.603 58.9004 118.203 58.7004 121.103 47.4004L124.003 48.1004C120.603 61.8004 108.403 61.9004 108.203 61.9004Z" fill="#FFF200"/>
<path d="M120.303 72.9004L118.703 70.4004C118.803 70.3004 129.403 63.4004 130.003 55.9004L133.003 56.2004C132.203 65.2004 120.803 72.6004 120.303 72.9004Z" fill="#FFF200"/>
<path d="M129.405 81.7992L128.305 78.9992C128.405 78.8992 142.705 73.4992 143.405 64.1992L146.405 64.3992C145.605 75.5992 130.105 81.4992 129.405 81.7992Z" fill="#FFF200"/>
<path d="M138.805 89.4996L137.305 86.8996C137.405 86.7996 151.505 78.4996 151.505 67.0996H154.505C154.405 80.1996 139.405 89.0996 138.805 89.4996Z" fill="#FFF200"/>
<path d="M150.303 98.4996L149.203 95.6996C149.303 95.6996 159.103 91.4996 158.903 83.1996L161.903 83.0996C162.103 93.4996 150.803 98.2996 150.303 98.4996Z" fill="#FFF200"/>
<path d="M159.004 104.199V101.199C166.904 101.199 216.404 57.9988 224.904 41.2988L227.604 42.6988C223.004 51.7988 206.704 68.2988 194.104 79.5988C189.504 83.5988 166.404 104.199 159.004 104.199Z" fill="#FFF200"/>
<path d="M159.002 115.9L158.602 112.9C204.602 106.9 245.602 66.3004 246.002 65.9004L248.102 68.0004C247.702 68.4004 206.002 109.8 159.002 115.9Z" fill="#FFF200"/>
<path d="M159.004 119.499L158.504 116.499C221.704 105.499 262.204 111.999 262.604 112.099L262.104 115.099C261.704 114.999 221.604 108.599 159.004 119.499Z" fill="#FFF200"/>
<path d="M250.702 162.099C250.702 161.999 248.802 152.399 236.702 142.799C225.402 133.899 202.702 123.299 158.602 123.299V120.299C203.802 120.299 227.202 131.299 238.802 140.599C251.602 150.799 253.502 161.099 253.602 161.499L250.702 162.099Z" fill="#FFF200"/>
<path d="M223.002 205.8C223.002 205.6 222.902 187.4 214.802 168.6C204.102 143.6 185.102 129.6 158.402 126.9L158.702 123.9C193.502 127.4 209.902 149.5 217.602 167.5C225.902 186.8 226.002 205 226.002 205.8H223.002Z" fill="#FFF200"/>
<path d="M218.902 53.0004C205.802 47.6004 202.702 40.9004 202.602 40.6004L205.302 39.4004C205.302 39.5004 208.202 45.3004 220.002 50.2004L218.902 53.0004Z" fill="#FFF200"/>
<path d="M238.302 75.2988C237.602 74.6988 220.002 61.2988 217.902 51.8988L220.802 51.2988C222.302 58.0988 235.202 69.1988 240.002 72.8988L238.302 75.2988Z" fill="#FFF200"/>
<path d="M251.102 113.299C249.102 110.299 231.802 83.9988 237.902 73.2988L240.502 74.7988C236.102 82.3988 248.402 103.899 253.502 111.599L251.102 113.299Z" fill="#FFF200"/>
<path d="M245.304 151.2C245.204 150.1 242.104 123.8 249.904 111.6L252.404 113.2C245.104 124.5 248.204 150.6 248.204 150.8L245.304 151.2Z" fill="#FFF200"/>
<path d="M224.004 188.699L221.004 188.399C221.104 187.299 224.404 161.099 246.104 149.699L247.504 152.399C227.204 162.999 224.004 188.399 224.004 188.699Z" fill="#FFF200"/>
<path d="M206.402 211L203.402 210.9C203.402 210.7 204.602 190.2 222.202 187.1L222.702 190.1C207.502 192.7 206.402 210.8 206.402 211Z" fill="#FFF200"/>
<path d="M203.302 184.799L200.902 183C201.302 182.5 210.602 170.3 218.902 172.5L218.102 175.399C212.802 173.999 205.602 181.699 203.302 184.799Z" fill="#FFF200"/>
<path d="M197.002 166.7L194.902 164.5C195.302 164.1 205.502 154.6 212.502 158.2L211.202 160.9C207.002 158.7 199.502 164.3 197.002 166.7Z" fill="#FFF200"/>
<path d="M190.204 154.799L187.504 153.499C187.704 152.999 193.204 142.199 202.304 144.499L201.604 147.399C194.904 145.699 190.304 154.699 190.204 154.799Z" fill="#FFF200"/>
<path d="M178.705 143.699L175.805 142.799C176.005 142.299 179.805 130.599 186.905 132.499L186.105 135.399C182.605 134.399 179.505 141.199 178.705 143.699Z" fill="#FFF200"/>
<path d="M166.004 137.799C165.604 134.499 166.404 127.899 172.804 126.799L173.304 129.799C168.104 130.699 168.904 137.199 168.904 137.499L166.004 137.799Z" fill="#FFF200"/>
<path d="M217.002 174.299C212.902 158.999 232.602 139.099 233.402 138.299L235.502 140.399C235.302 140.599 216.202 159.899 219.902 173.499L217.002 174.299Z" fill="#FFF200"/>
<path d="M209.805 159.6C205.505 144.1 223.105 132.9 223.805 132.4L225.405 134.9C225.205 135 209.005 145.4 212.705 158.7L209.805 159.6Z" fill="#FFF200"/>
<path d="M203.504 146.2L200.504 145.7C202.004 136.2 208.904 128.2 209.204 127.9L211.504 129.9C211.404 129.9 204.904 137.5 203.504 146.2Z" fill="#FFF200"/>
<path d="M185.104 133.999C184.804 130.099 185.604 127.099 187.504 125.099C189.604 122.799 192.404 122.799 192.504 122.799V125.799C192.404 125.799 190.904 125.899 189.604 127.199C188.404 128.599 187.804 130.799 188.104 133.799L185.104 133.999Z" fill="#FFF200"/>
<path d="M171.603 128.5C170.403 122.4 174.503 121 174.603 120.9L175.503 123.8C175.303 123.9 173.803 124.6 174.403 128L171.603 128.5Z" fill="#FFF200"/>
<path d="M233.101 139.9C227.801 126.8 239.501 111.5 240.001 110.9L242.401 112.7C242.301 112.8 231.201 127.3 235.901 138.8L233.101 139.9Z" fill="#FFF200"/>
<path d="M223.305 134.299C219.005 125.299 226.404 111.399 226.704 110.799L229.305 112.199C229.205 112.299 222.305 125.399 226.005 132.999L223.305 134.299Z" fill="#FFF200"/>
<path d="M209.202 129.8C203.902 123.7 208.702 112 208.902 111.5L211.702 112.7C211.702 112.8 207.402 123.2 211.502 127.9L209.202 129.8Z" fill="#FFF200"/>
<path d="M189.802 124.999C185.102 119.599 192.002 112.499 192.302 112.299L194.402 114.399L193.302 113.299L194.402 114.299C194.302 114.399 189.202 119.699 192.102 122.999L189.802 124.999Z" fill="#FFF200"/>
<path d="M174.505 123.799C172.405 122.899 171.605 121.599 171.305 120.599C170.505 117.899 172.505 115.099 172.805 114.799L175.205 116.599C174.805 117.099 173.905 118.699 174.205 119.799C174.305 119.999 174.405 120.599 175.605 121.099L174.505 123.799Z" fill="#FFF200"/>
<path d="M240.403 113C225.903 103.4 227.503 82.9 227.603 82L230.603 82.3C230.603 82.5 229.003 101.9 242.003 110.5L240.403 113Z" fill="#FFF200"/>
<path d="M225.802 113C212.702 108 216.202 90.2 216.202 90L219.102 90.6C219.102 90.8 216.102 106.1 226.802 110.2L225.802 113Z" fill="#FFF200"/>
<path d="M209.303 113.1C202.903 106.7 206.003 96.5996 206.103 96.0996L209.003 96.9996C209.003 97.0996 206.403 105.8 211.403 111L209.303 113.1Z" fill="#FFF200"/>
<path d="M192.303 114.399C187.903 110.099 189.403 104.899 189.403 104.699L192.303 105.499C192.303 105.599 191.303 109.199 194.403 112.199L192.303 114.399Z" fill="#FFF200"/>
<path d="M175.504 115.599L172.504 115.499C172.604 111.999 173.304 110.499 173.404 110.299L176.104 111.599L174.804 110.899L176.204 111.499C176.104 111.599 175.704 112.699 175.504 115.599Z" fill="#FFF200"/>
<path d="M228.302 83.3992C211.902 72.0992 210.102 61.0992 210.102 60.5992L213.102 60.1992C213.102 60.2992 214.802 70.4992 230.102 80.8992L228.302 83.3992Z" fill="#FFF200"/>
<path d="M216.905 91.6C216.205 91.2 199.705 80.9 198.805 71.8L201.805 71.5C202.405 77.8 214.005 86.3 218.505 89L216.905 91.6Z" fill="#FFF200"/>
<path d="M206.903 97.9996C204.903 97.0996 187.503 88.9996 189.403 80.0996L192.303 80.6996C191.103 86.2996 203.602 93.2996 208.102 95.2996L206.903 97.9996Z" fill="#FFF200"/>
<path d="M189.804 106.2C189.404 105.8 179.804 97.1996 180.304 88.0996L183.304 88.1996C182.904 95.8996 191.804 103.9 191.804 103.9L189.804 106.2Z" fill="#FFF200"/>
<path d="M173.603 111.9C173.403 111.6 167.903 104.5 168.503 97L171.503 97.3C171.003 103.6 175.903 110 175.903 110.1L173.603 111.9Z" fill="#FFF200"/>
<path d="M211.605 61.9C211.405 61.9 199.305 61.8 195.805 48.2L198.705 47.5C201.605 58.8 211.205 59 211.605 59V61.9Z" fill="#FFF200"/>
<path d="M199.505 72.8988C199.005 72.5988 187.605 65.0988 186.805 56.0988L189.805 55.7988C190.405 63.2988 201.005 70.1988 201.105 70.2988L199.505 72.8988Z" fill="#FFF200"/>
<path d="M190.402 81.7992C189.702 81.5992 174.302 75.5992 173.402 64.3992L176.402 64.1992C177.102 73.5992 191.302 78.9992 191.502 78.9992L190.402 81.7992Z" fill="#FFF200"/>
<path d="M181.003 89.4996C180.403 89.0996 165.303 80.2996 165.403 67.0996H168.403C168.403 78.4996 182.403 86.7996 182.603 86.8996L181.003 89.4996Z" fill="#FFF200"/>
<path d="M169.503 98.4992C169.003 98.2992 157.803 93.4992 158.003 83.1992L161.003 83.2992C160.803 91.5992 170.603 95.7992 170.703 95.7992L169.503 98.4992Z" fill="#FFF200"/>
<path fill-rule="evenodd" clip-rule="evenodd" d="M171 42.6997C203.3 -6.00027 259.3 41.1997 229.2 86.0997C205.4 74.6997 185.1 60.8997 171 42.6997Z" fill="white"/>
<path fill-rule="evenodd" clip-rule="evenodd" d="M226.398 63.7992L223.298 51.6992C222.598 39.3992 216.798 35.9992 207.498 38.5992L192.898 37.1992L204.798 43.5992C205.898 48.3992 209.998 52.4992 218.398 55.4992L226.398 63.7992Z" fill="#231F20"/>
<path fill-rule="evenodd" clip-rule="evenodd" d="M133.701 42.6997C101.401 -6.00027 45.401 41.1997 75.501 86.0997C99.301 74.6997 119.601 60.8997 133.701 42.6997Z" fill="white"/>
<path fill-rule="evenodd" clip-rule="evenodd" d="M78.4023 63.7992L81.4023 51.6992C82.1023 39.3992 87.9023 35.9992 97.2023 38.5992L111.802 37.1992L99.9023 43.5992C98.8023 48.3992 94.7024 52.4992 86.3024 55.4992L78.4023 63.7992Z" fill="#231F20"/>
<path fill-rule="evenodd" clip-rule="evenodd" d="M118 27C123.5 30.3 128.9 35.5 133.7 42.8C131.3 45.8 128.8 48.7 126.1 51.5C127.8 53.1 129.6 54.7 131.4 56.1C135.7 59.5 140.2 62.2 144.9 64.3C147.5 65.5 150.2 66.4 152.9 67.1C155.2 67.7 157.5 68.2 159.9 68.5C162.3 68.2 164.6 67.7 166.9 67.1C169.6 66.4 172.3 65.4 174.9 64.3C178.6 62.7 182.1 60.6 185.6 58.2C180.2 53.4 175.4 48.3 171.1 42.8C179.7 29.8 189.9 23.7 199.8 22.4C189.3 15.2 177.5 8.2 164.3 1.2L163 0.5L161.6 1.2C145.3 9.3 130.8 17.9 118 27Z" fill="#A82E31"/>
<path d="M189.901 181.6L191.101 187.7C144.401 197 127.801 180.7 127.801 180.6C141.501 187.5 173.201 184.9 189.901 181.6Z" fill="#D2DF4E"/>
</svg>
