<svg width="232" height="232" viewBox="0 0 232 232" fill="none" xmlns="http://www.w3.org/2000/svg">
<path fill-rule="evenodd" clip-rule="evenodd" d="M46.8984 0.675781H185.078C210.281 0.675781 231.41 21.4023 231.41 46.5977V184.777C231.41 210.383 210.281 231.109 185.078 231.109H46.8984C21.3008 231.109 0.570312 210.383 0.570312 184.777V46.5977C0.570312 21.3984 21.3008 0.675781 46.8984 0.675781Z" fill="black"/>
<path fill-rule="evenodd" clip-rule="evenodd" d="M158.852 71.0078C152.898 64.4336 149.461 55.668 149.77 47.2148H142.879C144.449 56.6055 150.711 66 158.852 71.0078ZM70.25 176.836C78.6992 185.602 90.6016 191.238 103.75 191.238C129.109 191.238 149.77 170.887 149.77 145.84V94.4922C159.16 102.945 171.379 107.016 183.898 106.074V81.3398C181.391 81.9687 178.891 81.9687 176.699 81.3398V99.8125C164.172 100.754 151.648 96.6836 142.262 88.2305V139.574C142.262 164.625 121.91 184.977 96.5508 184.977C86.8398 184.977 77.7617 181.844 70.25 176.836ZM103.75 100.129C103.43 100.129 103.121 100.129 102.809 100.129V119.539C100.621 118.91 98.7383 118.598 96.5508 118.598C84.6484 118.598 75.2617 127.992 75.2617 139.574C75.2617 147.402 79.9492 154.605 86.5312 158.051C84.0195 154.605 82.7695 150.223 82.7695 145.84C82.7695 134.254 92.1602 124.859 103.75 124.859C105.941 124.859 108.129 125.176 110.012 125.801V100.754C108.129 100.441 105.941 100.129 103.75 100.129Z" fill="#FF2E56"/>
<path fill-rule="evenodd" clip-rule="evenodd" d="M142.879 47.2148C142.57 45.0234 142.262 43.1445 142.262 40.9531H117.52V139.574C117.52 151.16 108.129 160.555 96.5508 160.555C92.7891 160.555 89.6602 159.613 86.5312 158.051C90.6016 163.371 96.8594 166.816 103.75 166.816C115.641 166.816 125.039 157.422 125.039 145.84V47.2148H142.879ZM176.699 81.3398V75.0781C170.441 76.332 164.172 74.4531 158.852 71.0078C163.859 76.6445 169.809 80.4023 176.699 81.3398ZM96.5508 93.8633C71.1914 93.8633 50.5195 114.215 50.5195 139.574C50.5195 154.918 58.3516 168.695 70.25 176.836C62.7305 168.695 58.0391 157.734 58.0391 145.84C58.0391 121.105 77.7617 100.754 102.809 100.129V94.4922C100.621 94.1797 98.7383 93.8633 96.5508 93.8633Z" fill="#23F1E7"/>
<path fill-rule="evenodd" clip-rule="evenodd" d="M70.25 176.836C77.7617 181.844 86.8398 184.977 96.5508 184.977C121.91 184.977 142.262 164.625 142.262 139.574V88.2305C151.648 96.6836 164.172 100.754 176.699 99.8125V81.3398C169.809 80.4023 163.859 76.6445 158.852 71.0078C150.711 66 144.449 56.6055 142.879 47.2148H125.039V145.84C125.039 157.422 115.641 166.816 103.75 166.816C96.8594 166.816 90.6016 163.371 86.5312 158.051C79.9492 154.605 75.2617 147.402 75.2617 139.574C75.2617 127.992 84.6484 118.598 96.5508 118.598C98.7383 118.598 100.621 118.91 102.809 119.539V100.129C77.7617 100.754 58.0391 121.105 58.0391 145.84C58.0391 157.734 62.7305 168.695 70.25 176.836Z" fill="white"/>
</svg>
