<svg width="231" height="231" viewBox="0 0 231 231" fill="none" xmlns="http://www.w3.org/2000/svg">
<path fill-rule="evenodd" clip-rule="evenodd" d="M47.043 0.460938H184.98C210.129 0.460938 230.82 21.5586 230.82 46.7109V184.645C230.82 210.203 210.129 230.895 184.98 230.895H47.043C21.4844 230.895 0.792969 210.203 0.792969 184.645V46.7109C0.792969 21.5586 21.4844 0.460938 47.043 0.460938Z" fill="#1AA2F8"/>
<path fill-rule="evenodd" clip-rule="evenodd" d="M117.23 93.7689C111.145 61.7181 149.68 42.6478 172.398 65.7806C172.398 65.7806 182.551 62.9407 191.469 57.261C191.469 57.261 188.23 68.2103 177.27 75.1087C177.27 75.1087 189.441 73.4798 194.719 70.2376C194.719 70.2376 189.441 81.1907 179.711 85.2493C184.98 158.679 105.867 203.308 41.7695 166.796C41.7695 166.796 73.4141 168.417 86.8008 153.003C86.8008 153.003 67.3281 154.624 57.5898 131.093C57.5898 131.093 64.8945 133.933 72.1953 130.281C72.1953 130.281 49.4766 126.632 47.4492 99.4485C47.4492 99.4485 54.7539 105.128 62.8633 103.101C62.8633 103.101 37.7109 88.0892 51.9102 60.9095C51.9102 60.9095 78.6875 94.9876 117.23 93.7689Z" fill="white"/>
</svg>
