<svg width="232" height="232" viewBox="0 0 232 232" fill="none" xmlns="http://www.w3.org/2000/svg">
<path fill-rule="evenodd" clip-rule="evenodd" d="M46.9219 0.675781H185.102C210.301 0.675781 231.031 21.3984 231.031 46.5977V184.777C231.031 210.383 210.301 231.109 185.102 231.109H46.9219C21.3164 231.109 0.589844 210.383 0.589844 184.777V46.5977C0.589844 21.3984 21.3164 0.675781 46.9219 0.675781Z" fill="#FE0000"/>
<path fill-rule="evenodd" clip-rule="evenodd" d="M71.5039 64.8242C85.9531 63.668 103.008 63.0898 116.012 63.0898C129.016 63.0898 145.781 63.668 160.52 64.8242C177.57 66.2695 186.238 69.1562 188.551 86.2109C189.711 94.0117 190.289 104.707 190.289 115.688C190.289 126.672 189.711 137.652 188.551 145.168C186.238 162.508 177.57 165.109 160.52 166.555C145.781 167.996 129.016 168.289 116.012 168.289C103.008 168.289 85.9531 167.996 71.5039 166.555C54.4531 165.109 45.4922 162.508 43.1836 145.168C42.3164 137.652 41.7383 126.672 41.7383 115.688C41.7383 104.707 42.3164 94.0117 43.1836 86.2109C45.4922 69.1562 54.4531 66.2695 71.5039 64.8242Z" fill="white"/>
<path fill-rule="evenodd" clip-rule="evenodd" d="M100.984 93.4336L139.711 115.688L100.984 138.23V93.4336Z" fill="#FE0000"/>
</svg>
