<svg width="52" height="50" viewBox="0 0 52 50" fill="none" xmlns="http://www.w3.org/2000/svg">
<path fill-rule="evenodd" clip-rule="evenodd" d="M3.72331 15.5252C2.0641 15.6025 0.811151 17.1663 0.897794 19.0273C0.984436 20.8883 2.39969 22.3279 4.03648 22.2517C5.69568 22.1745 6.94861 20.6107 6.86197 18.7496C6.8129 17.6958 6.31958 16.7526 5.61875 16.1785L5.03114 17.5541C5.33828 17.8768 5.51611 18.318 5.53908 18.8112C5.5871 19.8426 4.88583 20.7067 3.96654 20.7495C3.04725 20.7923 2.2687 19.9971 2.22068 18.9657C2.17266 17.9343 2.87396 17.0703 3.79325 17.0275C4.03989 17.016 4.26619 17.0504 4.47321 17.1531L4.71924 15.6811C4.39907 15.5612 4.05964 15.5096 3.72331 15.5252Z" fill="#231F20"/>
<path fill-rule="evenodd" clip-rule="evenodd" d="M18.6744 4.1093L24.0071 4.26549C33.2424 6.19491 39.7938 9.84467 43.6605 15.1923C47.4506 20.3414 46.0174 25.756 41.6459 31.285L40.9892 38.4162C38.3017 48.7429 31.7551 50.5082 22.597 46.3731C16.8096 47.0695 12.4414 45.4303 10.0744 40.4397L9.44147 31.189C7.03599 29.2337 5.17333 26.8711 4.54485 23.5074C1.97548 18.0319 3.06025 10.9257 8.23482 7.20189L18.6744 4.1093Z" fill="#00A651"/>
<path d="M7.21214 26.2592C9.80851 29.419 15.6972 31.8637 20.6211 30.9604C25.7233 30.0263 34.7846 25.8069 43.1737 19.2145L41.4625 21.0693C32.9003 27.8046 26.164 31.2865 20.862 32.2749C15.3808 33.2716 11.3948 31.6371 8.48818 28.0873L7.21214 26.2592Z" fill="#231F20"/>
<path fill-rule="evenodd" clip-rule="evenodd" d="M20.3289 6.84228C16.5017 -2.48448 5.43865 3.62569 9.00723 12.223C13.1323 11.5366 16.9157 9.78751 20.3289 6.84228Z" fill="white"/>
<path fill-rule="evenodd" clip-rule="evenodd" d="M10.2519 8.54771L11.1721 6.59489C11.706 4.5477 12.8114 4.15919 14.285 4.92198L16.7916 5.18728L14.5541 5.87567C14.2084 6.65576 13.3804 7.21113 11.8406 7.44011L10.2519 8.54771Z" fill="#231F20"/>
<path fill-rule="evenodd" clip-rule="evenodd" d="M24.4706 7.95241C27.4147 -1.6896 38.9976 3.36625 36.2433 12.2579C32.0723 11.9578 28.1416 10.5454 24.4706 7.95241Z" fill="white"/>
<path fill-rule="evenodd" clip-rule="evenodd" d="M34.6626 8.71319L33.5648 6.85432C32.8431 4.86559 31.7063 4.58147 30.31 5.47788L27.8389 5.97492L30.1306 6.45245C30.5473 7.19704 31.4233 7.67308 32.9777 7.758L34.6626 8.71319Z" fill="#231F20"/>
<path fill-rule="evenodd" clip-rule="evenodd" d="M45.8987 22.2575C48.2978 22.1458 50.3273 24.2309 50.4526 26.9215C50.5779 29.6122 48.7508 31.8768 46.3517 31.9885C43.9526 32.1002 41.9231 30.0151 41.7978 27.3245C41.7258 25.7774 42.2899 24.3804 43.2347 23.4376L44.2897 25.3434C43.909 25.8555 43.6927 26.5172 43.7261 27.2347C43.796 28.737 44.9286 29.8976 46.2515 29.8361C47.5744 29.7745 48.5943 28.5136 48.5243 27.0113C48.4544 25.5091 47.3218 24.3484 45.9989 24.41C45.6626 24.4257 45.3304 24.531 45.0452 24.6791L44.4762 22.5934C44.9387 22.3921 45.4054 22.2805 45.8987 22.2575Z" fill="#231F20"/>
</svg>
